<?xml version="1.0" standalone="no"?>
<!DOCTYPE svg PUBLIC "-//W3C//DTD SVG 20010904//EN"
 "http://www.w3.org/TR/2001/REC-SVG-20010904/DTD/svg10.dtd">
<svg version="1.0" xmlns="http://www.w3.org/2000/svg"
 width="544.000000pt" height="544.000000pt" viewBox="0 0 544.000000 544.000000"
 preserveAspectRatio="xMidYMid meet">
<metadata>
Created by potrace 1.14, written by Peter Selinger 2001-2017
</metadata>
<g transform="translate(0.000000,544.000000) scale(0.100000,-0.100000)"
fill="#000000" stroke="none">
<path d="M2672 5238 l3 -123 50 -2 c353 -18 657 -93 942 -233 721 -354 1184
-1048 1229 -1841 l7 -119 129 0 128 0 0 53 c0 248 -73 598 -177 852 -338 828
-1090 1403 -1986 1520 -65 8 -165 15 -223 15 l-105 0 3 -122z"/>
<path d="M2178 5145 c-839 -102 -1564 -612 -1933 -1360 -152 -309 -245 -676
-245 -971 l0 -105 123 3 122 3 8 90 c31 374 93 608 235 890 109 219 235 391
416 570 388 385 893 606 1464 641 l112 7 0 123 0 124 -97 -1 c-54 -1 -146 -7
-205 -14z"/>
<path d="M2674 4907 c-2 -7 -3 -65 -2 -128 l3 -114 115 -6 c778 -43 1446 -605
1614 -1359 22 -99 46 -286 46 -357 0 -23 2 -23 124 -23 69 0 127 4 130 8 9 15
-14 260 -34 366 -152 788 -772 1413 -1565 1579 -196 41 -421 59 -431 34z"/>
<path d="M2311 4709 c-401 -32 -809 -194 -1121 -446 -102 -83 -273 -260 -347
-360 -170 -229 -287 -483 -347 -754 -30 -137 -48 -292 -44 -374 l3 -60 125 0
125 0 6 111 c14 234 69 436 179 659 92 185 178 304 330 455 232 232 493 382
805 463 112 29 305 57 396 57 l60 0 -3 128 -3 127 -25 1 c-14 1 -76 -2 -139
-7z"/>
<path d="M2675 4458 c-3 -8 -4 -63 -3 -124 l3 -109 110 -12 c405 -45 722 -219
951 -522 151 -202 254 -487 254 -708 l0 -63 132 0 131 0 -6 103 c-16 265 -105
527 -258 758 -87 131 -291 334 -425 422 -235 156 -505 248 -771 263 -94 6
-113 5 -118 -8z"/>
<path d="M2325 4263 c-22 -2 -88 -13 -148 -24 -478 -89 -895 -402 -1111 -834
-97 -192 -153 -403 -158 -590 l-3 -100 125 0 125 0 11 115 c14 132 31 213 70
320 174 486 625 825 1144 859 l95 6 3 128 3 127 -58 -2 c-32 -1 -76 -3 -98 -5z"/>
<path d="M4206 2718 c-2 -7 -9 -63 -15 -124 -13 -131 -38 -235 -84 -348 -185
-462 -628 -782 -1127 -815 l-95 -6 -3 -129 -3 -129 101 7 c394 27 740 181
1015 451 262 257 419 585 456 952 6 67 9 129 6 137 -5 13 -27 16 -127 16 -88
0 -122 -3 -124 -12z"/>
<path d="M4664 2723 c-6 -5 -14 -58 -18 -123 -17 -300 -132 -624 -314 -880
-86 -122 -291 -327 -410 -410 -183 -128 -387 -223 -592 -274 -121 -30 -296
-56 -387 -56 l-63 0 0 -124 c0 -69 4 -127 8 -130 17 -10 282 16 400 39 323 66
632 210 882 412 102 82 273 260 347 360 170 229 286 482 347 754 28 128 49
309 44 384 l-3 50 -115 3 c-63 1 -120 -1 -126 -5z"/>
<path d="M5115 2718 c-2 -7 -9 -75 -15 -151 -52 -679 -403 -1279 -969 -1658
-123 -82 -366 -204 -496 -249 -201 -69 -418 -112 -642 -126 l-113 -7 0 -125 0
-125 138 6 c347 16 660 98 981 258 503 249 897 650 1138 1155 136 286 230 686
221 939 l-3 90 -118 3 c-88 2 -118 -1 -122 -10z"/>
<path d="M204 2398 c43 -780 441 -1472 1101 -1913 138 -92 412 -225 575 -279
239 -79 503 -126 706 -126 l105 0 -3 122 -3 123 -50 2 c-243 12 -461 51 -667
120 -857 284 -1457 1062 -1504 1951 l-7 122 -130 0 -130 0 7 -122z"/>
<path d="M613 2398 c23 -466 219 -912 552 -1257 358 -371 817 -584 1339 -621
81 -6 157 -8 167 -5 18 6 19 15 17 128 l-3 122 -60 2 c-361 14 -662 103 -940
276 -472 294 -785 818 -812 1359 l-6 118 -130 0 -130 0 6 -122z"/>
<path d="M1110 2451 c0 -237 106 -558 261 -792 87 -131 291 -334 424 -422 241
-159 530 -256 780 -260 l110 -2 0 120 0 120 -115 13 c-63 7 -151 21 -195 31
-390 93 -710 351 -885 711 -70 146 -120 347 -120 486 l0 64 -130 0 -130 0 0
-69z"/>
</g>
</svg>
