<?xml version="1.0" standalone="no"?>
<!DOCTYPE svg PUBLIC "-//W3C//DTD SVG 20010904//EN"
 "http://www.w3.org/TR/2001/REC-SVG-20010904/DTD/svg10.dtd">
<svg version="1.0" xmlns="http://www.w3.org/2000/svg"
 width="512.000000pt" height="512.000000pt" viewBox="0 0 512.000000 512.000000"
 preserveAspectRatio="xMidYMid meet">
<metadata>
Created by potrace 1.14, written by Peter Selinger 2001-2017
</metadata>
<g transform="translate(0.000000,512.000000) scale(0.100000,-0.100000)"
fill="#000000" stroke="none">
<path d="M670 2450 l0 -1010 190 0 190 0 0 369 0 369 303 4 c301 3 302 4 382
31 95 34 198 100 258 167 56 62 112 170 132 251 20 85 20 295 0 374 -50 196
-201 355 -394 415 -105 33 -217 40 -648 40 l-413 0 0 -1010z m938 631 c66 -30
125 -95 143 -158 7 -27 12 -81 12 -122 -3 -126 -72 -227 -181 -262 -23 -8
-130 -14 -284 -16 l-248 -5 0 297 0 296 253 -3 c241 -3 254 -4 305 -27z"/>
<path d="M2267 3453 c-4 -3 -7 -458 -7 -1010 l0 -1003 185 0 185 0 2 868 3
867 25 0 c24 0 24 -1 197 -860 94 -473 172 -863 173 -867 0 -5 141 -8 313 -8
l314 0 174 868 174 867 25 0 25 0 3 -867 2 -868 180 0 180 0 0 1010 0 1010
-350 0 -350 0 -5 -22 c-3 -13 -79 -399 -170 -858 -91 -459 -167 -845 -170
-857 -7 -28 -51 -32 -59 -5 -3 9 -80 395 -171 857 -92 462 -169 850 -172 863
l-5 22 -347 0 c-191 0 -351 -3 -354 -7z"/>
</g>
</svg>
