<svg width="1000" viewBox="0 0 477 120" fill="none" xmlns="http://www.w3.org/2000/svg">
<path d="M61 27.8496C61 23.4313 64.5817 19.8496 69 19.8496H98C102.418 19.8496 106 23.4313 106 27.8496V49.8496C106 50.4019 105.552 50.8496 105 50.8496H62C61.4477 50.8496 61 50.4019 61 49.8496V27.8496Z" fill="#D56976"/>
<path d="M146 28.3496C146 23.6552 149.806 19.8496 154.5 19.8496C159.194 19.8496 163 23.6552 163 28.3496V50.5396C163 50.7108 162.861 50.8496 162.69 50.8496H146.31C146.139 50.8496 146 50.7108 146 50.5396V28.3496Z" fill="#E18644"/>
<path d="M174 28.3496C174 23.6552 177.806 19.8496 182.5 19.8496C187.194 19.8496 191 23.6552 191 28.3496V50.5396C191 50.7108 190.861 50.8496 190.69 50.8496H174.31C174.139 50.8496 174 50.7108 174 50.5396V28.3496Z" fill="#D56976"/>
<path d="M203 28.3496C203 23.6552 206.806 19.8496 211.5 19.8496C216.194 19.8496 220 23.6552 220 28.3496V50.5396C220 50.7108 219.861 50.8496 219.69 50.8496H203.31C203.139 50.8496 203 50.7108 203 50.5396V28.3496Z" fill="#4483E1"/>
<path d="M231 28.3496C231 23.6552 234.806 19.8496 239.5 19.8496C244.194 19.8496 248 23.6552 248 28.3496V50.5396C248 50.7108 247.861 50.8496 247.69 50.8496H231.31C231.139 50.8496 231 50.7108 231 50.5396V28.3496Z" fill="#4483E1"/>
<path d="M259 28.3496C259 23.6552 262.806 19.8496 267.5 19.8496C272.194 19.8496 276 23.6552 276 28.3496V50.5396C276 50.7108 275.861 50.8496 275.69 50.8496H259.31C259.139 50.8496 259 50.7108 259 50.5396V28.3496Z" fill="#4483E1"/>
<path d="M287 28.3496C287 23.6552 290.806 19.8496 295.5 19.8496C300.194 19.8496 304 23.6552 304 28.3496V50.5396C304 50.7108 303.861 50.8496 303.69 50.8496H287.31C287.139 50.8496 287 50.7108 287 50.5396V28.3496Z" fill="#4483E1"/>
<path d="M315 28.3496C315 23.6552 318.806 19.8496 323.5 19.8496C328.194 19.8496 332 23.6552 332 28.3496V50.5396C332 50.7108 331.861 50.8496 331.69 50.8496H315.31C315.139 50.8496 315 50.7108 315 50.5396V28.3496Z" fill="#68B455"/>
<path d="M344 28.3496C344 23.6552 347.806 19.8496 352.5 19.8496C357.194 19.8496 361 23.6552 361 28.3496V50.5396C361 50.7108 360.861 50.8496 360.69 50.8496H344.31C344.139 50.8496 344 50.7108 344 50.5396V28.3496Z" fill="#E18644"/>
<path d="M372 28.3496C372 23.6552 375.806 19.8496 380.5 19.8496C385.194 19.8496 389 23.6552 389 28.3496V50.5396C389 50.7108 388.861 50.8496 388.69 50.8496H372.31C372.139 50.8496 372 50.7108 372 50.5396V28.3496Z" fill="#E18644"/>
<path d="M400 28.3496C400 23.6552 403.806 19.8496 408.5 19.8496C413.194 19.8496 417 23.6552 417 28.3496V50.5396C417 50.7108 416.861 50.8496 416.69 50.8496H400.31C400.139 50.8496 400 50.7108 400 50.5396V28.3496Z" fill="#474448"/>
<path d="M118 28.3496C118 23.6552 121.806 19.8496 126.5 19.8496C131.194 19.8496 135 23.6552 135 28.3496V50.5396C135 50.7108 134.861 50.8496 134.69 50.8496H118.31C118.139 50.8496 118 50.7108 118 50.5396V28.3496Z" fill="#E18644"/>
<path d="M92 91.3496C92 96.044 88.1944 99.8496 83.5 99.8496C78.8056 99.8496 75 96.044 75 91.3496L75 69.1596C75 68.9884 75.1388 68.8496 75.31 68.8496L91.69 68.8496C91.8612 68.8496 92 68.9884 92 69.1596L92 91.3496Z" fill="#474448"/>
<path d="M120 91.3496C120 96.044 116.194 99.8496 111.5 99.8496C106.806 99.8496 103 96.044 103 91.3496L103 68.8496L120 68.8496L120 91.3496Z" fill="#474448"/>
<path d="M120 91.3496C120 96.044 116.194 99.8496 111.5 99.8496C106.806 99.8496 103 96.044 103 91.3496L103 69.1596C103 68.9884 103.139 68.8496 103.31 68.8496L119.69 68.8496C119.861 68.8496 120 68.9884 120 69.1596L120 91.3496Z" fill="#474448"/>
<path d="M149 91.3496C149 96.044 145.194 99.8496 140.5 99.8496C135.806 99.8496 132 96.044 132 91.3496L132 69.1596C132 68.9884 132.139 68.8496 132.31 68.8496L148.69 68.8496C148.861 68.8496 149 68.9884 149 69.1596L149 91.3496Z" fill="#E18644"/>
<path d="M177 91.3496C177 96.044 173.194 99.8496 168.5 99.8496C163.806 99.8496 160 96.044 160 91.3496L160 69.1596C160 68.9884 160.139 68.8496 160.31 68.8496L176.69 68.8496C176.861 68.8496 177 68.9884 177 69.1596L177 91.3496Z" fill="#E18644"/>
<path d="M205 91.3496C205 96.044 201.194 99.8496 196.5 99.8496C191.806 99.8496 188 96.044 188 91.3496L188 69.1596C188 68.9884 188.139 68.8496 188.31 68.8496L204.69 68.8496C204.861 68.8496 205 68.9884 205 69.1596L205 91.3496Z" fill="#D56976"/>
<path d="M234 91.3496C234 96.044 230.194 99.8496 225.5 99.8496C220.806 99.8496 217 96.044 217 91.3496L217 69.1596C217 68.9884 217.139 68.8496 217.31 68.8496L233.69 68.8496C233.861 68.8496 234 68.9884 234 69.1596L234 91.3496Z" fill="#4483E1"/>
<path d="M262 91.3496C262 96.044 258.194 99.8496 253.5 99.8496C248.806 99.8496 245 96.044 245 91.3496L245 69.1596C245 68.9884 245.139 68.8496 245.31 68.8496L261.69 68.8496C261.861 68.8496 262 68.9884 262 69.1596L262 91.3496Z" fill="#4483E1"/>
<path d="M290 91.3496C290 96.044 286.194 99.8496 281.5 99.8496C276.806 99.8496 273 96.044 273 91.3496L273 69.1596C273 68.9884 273.139 68.8496 273.31 68.8496L289.69 68.8496C289.861 68.8496 290 68.9884 290 69.1596L290 91.3496Z" fill="#4483E1"/>
<path d="M318 91.3496C318 96.044 314.194 99.8496 309.5 99.8496C304.806 99.8496 301 96.044 301 91.3496L301 69.1596C301 68.9884 301.139 68.8496 301.31 68.8496L317.69 68.8496C317.861 68.8496 318 68.9884 318 69.1596L318 91.3496Z" fill="#4483E1"/>
<path d="M346 91.3496C346 96.044 342.194 99.8496 337.5 99.8496C332.806 99.8496 329 96.044 329 91.3496L329 69.1596C329 68.9884 329.139 68.8496 329.31 68.8496L345.69 68.8496C345.861 68.8496 346 68.9884 346 69.1596L346 91.3496Z" fill="#68B455"/>
<path d="M375 91.3496C375 96.044 371.194 99.8496 366.5 99.8496C361.806 99.8496 358 96.044 358 91.3496L358 69.1596C358 68.9884 358.139 68.8496 358.31 68.8496L374.69 68.8496C374.861 68.8496 375 68.9884 375 69.1596L375 91.3496Z" fill="#E18644"/>
<path d="M403 91.3496C403 96.044 399.194 99.8496 394.5 99.8496C389.806 99.8496 386 96.044 386 91.3496L386 69.1596C386 68.9884 386.139 68.8496 386.31 68.8496L402.69 68.8496C402.861 68.8496 403 68.9884 403 69.1596L403 91.3496Z" fill="#474448"/>
<path d="M27.084 54.8496V47.0976H26.904L25.272 50.0856H24.216L26.22 46.4496H28.056V54.8496H27.084Z" fill="black"/>
<path d="M444.084 54.8496V47.0976H443.904L442.272 50.0856H441.216L443.22 46.4496H445.056V54.8496H444.084ZM449.652 55.0176C449.06 55.0176 448.528 54.9056 448.056 54.6816C447.592 54.4576 447.224 54.1336 446.952 53.7096C446.688 53.2856 446.556 52.7736 446.556 52.1736V51.9456H447.528V52.1616C447.528 52.7776 447.724 53.2616 448.116 53.6136C448.508 53.9656 449.02 54.1416 449.652 54.1416C450.292 54.1416 450.788 53.9776 451.14 53.6496C451.5 53.3136 451.68 52.8936 451.68 52.3896V52.2936C451.68 51.9256 451.592 51.6296 451.416 51.4056C451.24 51.1736 451 51.0056 450.696 50.9016C450.4 50.7896 450.072 50.7336 449.712 50.7336H448.344V49.5216L451.548 47.4696V47.3256H446.76V46.4496H452.58V47.8056L449.448 49.8216V49.9656H450.048C450.52 49.9656 450.952 50.0536 451.344 50.2296C451.744 50.3976 452.06 50.6536 452.292 50.9976C452.532 51.3336 452.652 51.7576 452.652 52.2696V52.4016C452.652 52.9296 452.528 53.3896 452.28 53.7816C452.032 54.1736 451.684 54.4776 451.236 54.6936C450.788 54.9096 450.26 55.0176 449.652 55.0176Z" fill="black"/>
<path d="M441.636 73.8496V72.9736C441.636 72.3736 441.74 71.8936 441.948 71.5336C442.164 71.1736 442.46 70.8856 442.836 70.6696C443.22 70.4456 443.676 70.2536 444.204 70.0936L444.864 69.8896C445.224 69.7776 445.54 69.6416 445.812 69.4816C446.084 69.3136 446.296 69.1056 446.448 68.8576C446.6 68.6016 446.676 68.2896 446.676 67.9216V67.8736C446.676 67.3456 446.492 66.9296 446.124 66.6256C445.756 66.3136 445.284 66.1576 444.708 66.1576C444.1 66.1576 443.604 66.3216 443.22 66.6496C442.836 66.9696 442.644 67.4576 442.644 68.1136V68.2816H441.684V68.1256C441.684 67.5176 441.816 67.0016 442.08 66.5776C442.344 66.1536 442.704 65.8336 443.16 65.6176C443.616 65.3936 444.132 65.2816 444.708 65.2816C445.284 65.2816 445.792 65.3896 446.232 65.6056C446.68 65.8216 447.028 66.1216 447.276 66.5056C447.524 66.8896 447.648 67.3376 447.648 67.8496V67.9576C447.648 68.5016 447.54 68.9536 447.324 69.3136C447.108 69.6656 446.808 69.9536 446.424 70.1776C446.048 70.4016 445.604 70.5936 445.092 70.7536L444.444 70.9576C444.036 71.0856 443.696 71.2216 443.424 71.3656C443.16 71.5016 442.96 71.6776 442.824 71.8936C442.688 72.1096 442.62 72.4016 442.62 72.7696V72.9736H447.576V73.8496H441.636ZM451.854 74.0176C451.238 74.0176 450.706 73.9016 450.258 73.6696C449.81 73.4296 449.462 73.1016 449.214 72.6856C448.966 72.2616 448.842 71.7736 448.842 71.2216V71.0776H449.814V71.1856C449.814 71.8176 449.998 72.3016 450.366 72.6376C450.734 72.9736 451.222 73.1416 451.83 73.1416C452.47 73.1416 452.97 72.9616 453.33 72.6016C453.69 72.2416 453.87 71.7496 453.87 71.1256V71.0176C453.87 70.4176 453.694 69.9416 453.342 69.5896C452.998 69.2296 452.55 69.0496 451.998 69.0496C451.678 69.0496 451.414 69.1016 451.206 69.2056C450.998 69.3016 450.834 69.4256 450.714 69.5776C450.594 69.7216 450.494 69.8616 450.414 69.9976H449.094V65.4496H454.614V66.3256H450.066V69.2296H450.234C450.322 69.0696 450.442 68.9136 450.594 68.7616C450.754 68.6096 450.966 68.4816 451.23 68.3776C451.494 68.2736 451.822 68.2216 452.214 68.2216C452.702 68.2216 453.142 68.3336 453.534 68.5576C453.934 68.7816 454.25 69.1016 454.482 69.5176C454.722 69.9336 454.842 70.4296 454.842 71.0056V71.1376C454.842 71.7056 454.722 72.2056 454.482 72.6376C454.242 73.0696 453.898 73.4096 453.45 73.6576C453.002 73.8976 452.47 74.0176 451.854 74.0176Z" fill="black"/>
<path d="M27.084 73.8496V66.0976H26.904L25.272 69.0856H24.216L26.22 65.4496H28.056V73.8496H27.084ZM33.7796 73.8496V72.1336H29.3996V70.9816L32.9276 65.4496H34.7516V71.2576H36.1916V72.1336H34.7516V73.8496H33.7796ZM30.3716 71.2576H33.7796V66.0376H33.6116L30.3716 71.1136V71.2576Z" fill="black"/>
<rect x="1" y="1" width="475" height="117.699" rx="3" stroke="#474448"/>
<path d="M432.931 43.3607L432.46 43.1943L432.308 43.6237L432.722 43.8146L432.931 43.3607ZM432.956 43.372L433.435 43.5158L433.56 43.1L433.165 42.918L432.956 43.372ZM419.286 88.8965L418.807 88.7527L418.805 88.7598L418.803 88.7669L419.286 88.8965ZM398.823 104.575V104.075H398.616L398.47 104.222L398.823 104.575ZM398.823 104.575V105.075H399.03L399.177 104.929L398.823 104.575ZM78.6814 104.575L78.203 104.721L78.3107 105.075H78.6814V104.575ZM78.6813 104.575L79.1598 104.43L79.0521 104.075H78.6813L78.6813 104.575ZM58.2631 89.0603L58.7451 88.9268L58.742 88.9166L58.2631 89.0603ZM44.5489 43.372L44.3393 42.918L43.9452 43.0999L44.07 43.5157L44.5489 43.372ZM44.5734 43.3607L44.7829 43.8147L45.1964 43.6238L45.0449 43.1943L44.5734 43.3607ZM64.5575 15.1242L64.5575 15.6242L65.0245 15.6242L65.0563 15.1583L64.5575 15.1242ZM64.5575 15.124V14.624H64.0906L64.0587 15.0899L64.5575 15.124ZM413.128 15.124L413.625 15.0642L413.572 14.624H413.128V15.124ZM413.128 15.1248L412.632 15.1846L412.685 15.6211L413.124 15.6248L413.128 15.1248ZM433.403 43.527C434.2 41.2686 434.633 38.8393 434.633 36.3099H433.633C433.633 38.7244 433.219 41.0413 432.46 43.1943L433.403 43.527ZM433.165 42.918L433.141 42.9067L432.722 43.8146L432.746 43.8259L433.165 42.918ZM419.765 89.0403L433.435 43.5158L432.477 43.2282L418.807 88.7527L419.765 89.0403ZM398.823 105.075C408.851 105.075 417.288 98.2696 419.769 89.0262L418.803 88.7669C416.436 97.5844 408.387 104.075 398.823 104.075V105.075ZM398.47 104.222L398.469 104.222L399.177 104.929L399.177 104.929L398.47 104.222ZM398.823 104.075H78.6814V105.075H398.823V104.075ZM79.1598 104.43L79.1598 104.43L78.2029 104.72L78.203 104.721L79.1598 104.43ZM78.6813 104.075C69.1755 104.075 61.1661 97.6628 58.745 88.9268L57.7813 89.1939C60.3193 98.3517 68.7145 105.075 78.6813 105.075L78.6813 104.075ZM58.742 88.9166L45.0278 43.2282L44.07 43.5157L57.7842 89.2041L58.742 88.9166ZM44.7584 43.826L44.7829 43.8147L44.3638 42.9067L44.3393 42.918L44.7584 43.826ZM45.0449 43.1943C44.2853 41.0414 43.8718 38.7245 43.8718 36.31H42.8718C42.8718 38.8394 43.3051 41.2687 44.1018 43.527L45.0449 43.1943ZM43.8718 36.31C43.8718 24.8856 53.1331 15.6242 64.5575 15.6242L64.5575 14.6242C52.5808 14.6243 42.8718 24.3333 42.8718 36.31H43.8718ZM65.0563 15.1583L65.0563 15.1582L64.0587 15.0899L64.0587 15.09L65.0563 15.1583ZM64.5575 15.624H412.947V14.624H64.5575V15.624ZM412.947 15.624H413.128V14.624H412.947V15.624ZM412.632 15.1838L412.632 15.1846L413.625 15.065L413.625 15.0642L412.632 15.1838ZM434.633 36.3099C434.633 24.395 425.024 14.7245 413.133 14.6248L413.124 15.6248C424.467 15.7199 433.633 24.9445 433.633 36.3099H434.633Z" fill="#474448"/>
<circle cx="69.5" cy="50.3496" r="8" fill="white" stroke="#D56976"/>
<circle cx="83.5" cy="69.3496" r="8" fill="white" stroke="#474448"/>
<circle cx="97.5" cy="50.3496" r="8" fill="white" stroke="#D56976"/>
<circle cx="111.5" cy="69.3496" r="8" fill="white" stroke="#474448"/>
<circle cx="126.5" cy="50.3496" r="8" fill="white" stroke="#E18644"/>
<circle cx="140.5" cy="69.3496" r="8" fill="white" stroke="#E18644"/>
<circle cx="154.5" cy="50.3496" r="8" fill="white" stroke="#E18644"/>
<circle cx="168.5" cy="69.3496" r="8" fill="white" stroke="#E18644"/>
<circle cx="182.5" cy="50.3496" r="8" fill="white" stroke="#D56976"/>
<circle cx="196.5" cy="69.3496" r="8" fill="white" stroke="#D56976"/>
<circle cx="211.5" cy="50.3496" r="8" fill="white" stroke="#4483E1"/>
<circle cx="225.5" cy="69.3496" r="8" fill="white" stroke="#4483E1"/>
<circle cx="239.5" cy="50.3496" r="8" fill="white" stroke="#4483E1"/>
<circle cx="253.5" cy="69.3496" r="8" fill="white" stroke="#4483E1"/>
<circle cx="267.5" cy="50.3496" r="8" fill="white" stroke="#4483E1"/>
<circle cx="281.5" cy="69.3496" r="8" fill="white" stroke="#4483E1"/>
<circle cx="295.5" cy="50.3496" r="8" fill="white" stroke="#4483E1"/>
<circle cx="309.5" cy="69.3496" r="8" fill="white" stroke="#4483E1"/>
<circle cx="323.5" cy="50.3496" r="8" fill="white" stroke="#68B455"/>
<circle cx="337.5" cy="69.3496" r="8" fill="white" stroke="#68B455"/>
<circle cx="352.5" cy="50.3496" r="8" fill="white" stroke="#E18644"/>
<circle cx="366.5" cy="69.3496" r="8" fill="white" stroke="#E18644"/>
<circle cx="380.5" cy="50.3496" r="8" fill="white" stroke="#E18644"/>
<circle cx="394.5" cy="69.3496" r="8" fill="white" stroke="#474448"/>
<circle cx="408.5" cy="50.3496" r="8" fill="white" stroke="#474448"/>
<path d="M93.47 39.8496L92 35.2576H92.623L93.358 37.7356C93.442 38.0063 93.5143 38.2606 93.575 38.4986C93.6403 38.7319 93.7173 38.9839 93.806 39.2546H93.834C93.918 38.9839 93.9927 38.7319 94.058 38.4986C94.1233 38.2606 94.1957 38.0063 94.275 37.7356L95.01 35.2576H95.605L94.149 39.8496H93.47ZM96.2325 39.8496V35.2576H96.8135V39.8496H96.2325ZM98.0714 39.8496V35.2576H98.6734L100.332 38.1416L100.829 39.0936H100.857C100.843 38.8603 100.827 38.6199 100.808 38.3726C100.794 38.1206 100.787 37.8733 100.787 37.6306V35.2576H101.34V39.8496H100.738L99.0724 36.9586L98.5754 36.0136H98.5474C98.5661 36.2423 98.5824 36.4779 98.5964 36.7206C98.6151 36.9633 98.6244 37.2059 98.6244 37.4486V39.8496H98.0714Z" fill="white"/>
<path d="M79.827 28.5536C79.6823 28.5536 79.526 28.6003 79.358 28.6936C79.19 28.7869 79.036 28.9363 78.896 29.1416C78.9333 29.5756 79.0337 29.9069 79.197 30.1356C79.365 30.3643 79.5913 30.4786 79.876 30.4786C80.0953 30.4786 80.2797 30.3899 80.429 30.2126C80.5783 30.0306 80.653 29.7926 80.653 29.4986C80.653 29.2093 80.583 28.9806 80.443 28.8126C80.3077 28.6399 80.1023 28.5536 79.827 28.5536ZM79.876 30.9336C79.5867 30.9336 79.3253 30.8543 79.092 30.6956C78.8587 30.5369 78.6743 30.2989 78.539 29.9816C78.4037 29.6596 78.336 29.2606 78.336 28.7846C78.336 28.1873 78.4153 27.7066 78.574 27.3426C78.7373 26.9786 78.9473 26.7149 79.204 26.5516C79.4653 26.3836 79.743 26.2996 80.037 26.2996C80.2797 26.2996 80.4873 26.3463 80.66 26.4396C80.8373 26.5283 80.989 26.6403 81.115 26.7756L80.793 27.1326C80.7043 27.0253 80.5947 26.9413 80.464 26.8806C80.3333 26.8153 80.198 26.7826 80.058 26.7826C79.848 26.7826 79.6567 26.8433 79.484 26.9646C79.3113 27.0813 79.169 27.2796 79.057 27.5596C78.9497 27.8349 78.8913 28.2083 78.882 28.6796C79.022 28.5069 79.1853 28.3716 79.372 28.2736C79.5587 28.1709 79.743 28.1196 79.925 28.1196C80.3123 28.1196 80.6203 28.2363 80.849 28.4696C81.0823 28.6983 81.199 29.0413 81.199 29.4986C81.199 29.7833 81.1383 30.0329 81.017 30.2476C80.8957 30.4623 80.7347 30.6303 80.534 30.7516C80.338 30.8729 80.1187 30.9336 79.876 30.9336ZM82.9005 28.2806L82.6835 28.9806H84.0625L83.8455 28.2806C83.7615 28.0239 83.6822 27.7696 83.6075 27.5176C83.5328 27.2609 83.4582 26.9996 83.3835 26.7336H83.3555C83.2855 26.9996 83.2132 27.2609 83.1385 27.5176C83.0638 27.7696 82.9845 28.0239 82.9005 28.2806ZM81.5005 30.8496L83.0545 26.2576H83.7125L85.2665 30.8496H84.6435L84.2095 29.4496H82.5365L82.0955 30.8496H81.5005Z" fill="white"/>
<path d="M64.47 39.8496L63 35.2576H63.623L64.358 37.7356C64.442 38.0063 64.5143 38.2606 64.575 38.4986C64.6403 38.7319 64.7173 38.9839 64.806 39.2546H64.834C64.918 38.9839 64.9927 38.7319 65.058 38.4986C65.1233 38.2606 65.1957 38.0063 65.275 37.7356L66.01 35.2576H66.605L65.149 39.8496H64.47ZM67.2325 39.8496V35.2576H67.8135V39.8496H67.2325ZM69.0714 39.8496V35.2576H69.6734L71.3324 38.1416L71.8294 39.0936H71.8574C71.8434 38.8603 71.8271 38.6199 71.8084 38.3726C71.7944 38.1206 71.7874 37.8733 71.7874 37.6306V35.2576H72.3404V39.8496H71.7384L70.0724 36.9586L69.5754 36.0136H69.5474C69.5661 36.2423 69.5824 36.4779 69.5964 36.7206C69.6151 36.9633 69.6244 37.2059 69.6244 37.4486V39.8496H69.0714Z" fill="white"/>
<path d="M75.0889 28.8496L68 28.8496L68 33.8496M87.9778 28.8496L97 28.8496L97 33.8496" stroke="white"/>
<path d="M151.442 29.9216C151.166 29.9216 150.91 29.8696 150.674 29.7656C150.438 29.6576 150.234 29.5156 150.062 29.3396L150.362 28.9916C150.502 29.1396 150.666 29.2596 150.854 29.3516C151.046 29.4396 151.244 29.4836 151.448 29.4836C151.708 29.4836 151.91 29.4256 152.054 29.3096C152.198 29.1896 152.27 29.0336 152.27 28.8416C152.27 28.7056 152.24 28.5976 152.18 28.5176C152.124 28.4376 152.046 28.3696 151.946 28.3136C151.85 28.2576 151.74 28.2016 151.616 28.1456L151.052 27.8996C150.928 27.8476 150.804 27.7796 150.68 27.6956C150.56 27.6116 150.458 27.5036 150.374 27.3716C150.294 27.2396 150.254 27.0776 150.254 26.8856C150.254 26.6856 150.306 26.5076 150.41 26.3516C150.518 26.1916 150.666 26.0676 150.854 25.9796C151.042 25.8876 151.254 25.8416 151.49 25.8416C151.726 25.8416 151.944 25.8876 152.144 25.9796C152.344 26.0676 152.514 26.1836 152.654 26.3276L152.384 26.6516C152.264 26.5356 152.13 26.4456 151.982 26.3816C151.838 26.3136 151.674 26.2796 151.49 26.2796C151.27 26.2796 151.092 26.3316 150.956 26.4356C150.824 26.5396 150.758 26.6796 150.758 26.8556C150.758 26.9796 150.79 27.0836 150.854 27.1676C150.922 27.2476 151.006 27.3136 151.106 27.3656C151.206 27.4176 151.308 27.4656 151.412 27.5096L151.97 27.7496C152.122 27.8136 152.258 27.8916 152.378 27.9836C152.502 28.0716 152.6 28.1816 152.672 28.3136C152.744 28.4416 152.78 28.6036 152.78 28.7996C152.78 29.0076 152.726 29.1976 152.618 29.3696C152.51 29.5376 152.356 29.6716 152.156 29.7716C151.956 29.8716 151.718 29.9216 151.442 29.9216ZM153.555 29.8496V25.9136H154.677C154.973 25.9136 155.231 25.9496 155.451 26.0216C155.671 26.0936 155.843 26.2156 155.967 26.3876C156.091 26.5556 156.153 26.7836 156.153 27.0716C156.153 27.4836 156.019 27.7896 155.751 27.9896C155.483 28.1896 155.133 28.2896 154.701 28.2896H154.053V29.8496H153.555ZM154.053 27.8816H154.641C154.985 27.8816 155.239 27.8176 155.403 27.6896C155.571 27.5576 155.655 27.3516 155.655 27.0716C155.655 26.7876 155.567 26.5916 155.391 26.4836C155.219 26.3716 154.961 26.3156 154.617 26.3156H154.053V27.8816ZM156.953 29.8496V25.9136H157.451V29.8496H156.953ZM151.794 37.9216C151.466 37.9216 151.172 37.8416 150.912 37.6816C150.656 37.5176 150.452 37.2836 150.3 36.9796C150.152 36.6756 150.078 36.3096 150.078 35.8816C150.078 35.4576 150.154 35.0936 150.306 34.7896C150.458 34.4856 150.666 34.2516 150.93 34.0876C151.194 33.9236 151.492 33.8416 151.824 33.8416C152.064 33.8416 152.276 33.8916 152.46 33.9916C152.644 34.0876 152.792 34.1996 152.904 34.3276L152.634 34.6516C152.53 34.5396 152.412 34.4496 152.28 34.3816C152.148 34.3136 151.998 34.2796 151.83 34.2796C151.582 34.2796 151.364 34.3456 151.176 34.4776C150.992 34.6056 150.848 34.7876 150.744 35.0236C150.644 35.2596 150.594 35.5416 150.594 35.8696C150.594 36.1976 150.644 36.4836 150.744 36.7276C150.844 36.9676 150.984 37.1536 151.164 37.2856C151.348 37.4176 151.564 37.4836 151.812 37.4836C152 37.4836 152.168 37.4436 152.316 37.3636C152.464 37.2836 152.6 37.1756 152.724 37.0396L153 37.3516C152.844 37.5316 152.668 37.6716 152.472 37.7716C152.276 37.8716 152.05 37.9216 151.794 37.9216ZM154.679 37.9216C154.403 37.9216 154.147 37.8696 153.911 37.7656C153.675 37.6576 153.471 37.5156 153.299 37.3396L153.599 36.9916C153.739 37.1396 153.903 37.2596 154.091 37.3516C154.283 37.4396 154.481 37.4836 154.685 37.4836C154.945 37.4836 155.147 37.4256 155.291 37.3096C155.435 37.1896 155.507 37.0336 155.507 36.8416C155.507 36.7056 155.477 36.5976 155.417 36.5176C155.361 36.4376 155.283 36.3696 155.183 36.3136C155.087 36.2576 154.977 36.2016 154.853 36.1456L154.289 35.8996C154.165 35.8476 154.041 35.7796 153.917 35.6956C153.797 35.6116 153.695 35.5036 153.611 35.3716C153.531 35.2396 153.491 35.0776 153.491 34.8856C153.491 34.6856 153.543 34.5076 153.647 34.3516C153.755 34.1916 153.903 34.0676 154.091 33.9796C154.279 33.8876 154.491 33.8416 154.727 33.8416C154.963 33.8416 155.181 33.8876 155.381 33.9796C155.581 34.0676 155.751 34.1836 155.891 34.3276L155.621 34.6516C155.501 34.5356 155.367 34.4456 155.219 34.3816C155.075 34.3136 154.911 34.2796 154.727 34.2796C154.507 34.2796 154.329 34.3316 154.193 34.4356C154.061 34.5396 153.995 34.6796 153.995 34.8556C153.995 34.9796 154.027 35.0836 154.091 35.1676C154.159 35.2476 154.243 35.3136 154.343 35.3656C154.443 35.4176 154.545 35.4656 154.649 35.5096L155.207 35.7496C155.359 35.8136 155.495 35.8916 155.615 35.9836C155.739 36.0716 155.837 36.1816 155.909 36.3136C155.981 36.4416 156.017 36.6036 156.017 36.7996C156.017 37.0076 155.963 37.1976 155.855 37.3696C155.747 37.5376 155.593 37.6716 155.393 37.7716C155.193 37.8716 154.955 37.9216 154.679 37.9216ZM156.492 37.8496V37.5556C156.876 37.1716 157.202 36.8356 157.47 36.5476C157.738 36.2556 157.942 35.9936 158.082 35.7616C158.222 35.5256 158.292 35.3056 158.292 35.1016C158.292 34.8816 158.232 34.7016 158.112 34.5616C157.992 34.4216 157.81 34.3516 157.566 34.3516C157.406 34.3516 157.258 34.3976 157.122 34.4896C156.986 34.5776 156.862 34.6856 156.75 34.8136L156.468 34.5316C156.628 34.3556 156.798 34.2156 156.978 34.1116C157.162 34.0036 157.378 33.9496 157.626 33.9496C157.982 33.9496 158.262 34.0536 158.466 34.2616C158.67 34.4656 158.772 34.7376 158.772 35.0776C158.772 35.3176 158.704 35.5616 158.568 35.8096C158.436 36.0536 158.252 36.3116 158.016 36.5836C157.784 36.8516 157.516 37.1436 157.212 37.4596C157.316 37.4516 157.424 37.4436 157.536 37.4356C157.648 37.4276 157.754 37.4236 157.854 37.4236H158.964V37.8496H156.492Z" fill="white"/>
<path d="M179.39 29.9216C179.086 29.9216 178.832 29.8676 178.628 29.7596C178.424 29.6476 178.258 29.5216 178.13 29.3816L178.382 29.0576C178.498 29.1776 178.634 29.2836 178.79 29.3756C178.946 29.4676 179.136 29.5136 179.36 29.5136C179.592 29.5136 179.782 29.4496 179.93 29.3216C180.078 29.1936 180.152 29.0236 180.152 28.8116C180.152 28.6596 180.112 28.5276 180.032 28.4156C179.956 28.2996 179.828 28.2096 179.648 28.1456C179.472 28.0816 179.232 28.0496 178.928 28.0496V27.6716C179.2 27.6716 179.414 27.6396 179.57 27.5756C179.73 27.5116 179.844 27.4256 179.912 27.3176C179.98 27.2096 180.014 27.0896 180.014 26.9576C180.014 26.7696 179.954 26.6216 179.834 26.5136C179.718 26.4056 179.558 26.3516 179.354 26.3516C179.194 26.3516 179.046 26.3876 178.91 26.4596C178.778 26.5316 178.654 26.6256 178.538 26.7416L178.274 26.4296C178.422 26.2896 178.586 26.1756 178.766 26.0876C178.946 25.9956 179.148 25.9496 179.372 25.9496C179.704 25.9496 179.978 26.0356 180.194 26.2076C180.41 26.3756 180.518 26.6136 180.518 26.9216C180.518 27.1536 180.454 27.3436 180.326 27.4916C180.198 27.6396 180.03 27.7536 179.822 27.8336V27.8576C180.054 27.9096 180.25 28.0196 180.41 28.1876C180.57 28.3516 180.65 28.5656 180.65 28.8296C180.65 29.0536 180.594 29.2476 180.482 29.4116C180.37 29.5756 180.218 29.7016 180.026 29.7896C179.838 29.8776 179.626 29.9216 179.39 29.9216ZM182.216 29.8496L180.956 25.9136H181.49L182.12 28.0376C182.192 28.2696 182.254 28.4876 182.306 28.6916C182.362 28.8916 182.428 29.1076 182.504 29.3396H182.528C182.6 29.1076 182.664 28.8916 182.72 28.6916C182.776 28.4876 182.838 28.2696 182.906 28.0376L183.536 25.9136H184.046L182.798 29.8496H182.216ZM185.46 29.9216C185.156 29.9216 184.902 29.8676 184.698 29.7596C184.494 29.6476 184.328 29.5216 184.2 29.3816L184.452 29.0576C184.568 29.1776 184.704 29.2836 184.86 29.3756C185.016 29.4676 185.206 29.5136 185.43 29.5136C185.662 29.5136 185.852 29.4496 186 29.3216C186.148 29.1936 186.222 29.0236 186.222 28.8116C186.222 28.6596 186.182 28.5276 186.102 28.4156C186.026 28.2996 185.898 28.2096 185.718 28.1456C185.542 28.0816 185.302 28.0496 184.998 28.0496V27.6716C185.27 27.6716 185.484 27.6396 185.64 27.5756C185.8 27.5116 185.914 27.4256 185.982 27.3176C186.05 27.2096 186.084 27.0896 186.084 26.9576C186.084 26.7696 186.024 26.6216 185.904 26.5136C185.788 26.4056 185.628 26.3516 185.424 26.3516C185.264 26.3516 185.116 26.3876 184.98 26.4596C184.848 26.5316 184.724 26.6256 184.608 26.7416L184.344 26.4296C184.492 26.2896 184.656 26.1756 184.836 26.0876C185.016 25.9956 185.218 25.9496 185.442 25.9496C185.774 25.9496 186.048 26.0356 186.264 26.2076C186.48 26.3756 186.588 26.6136 186.588 26.9216C186.588 27.1536 186.524 27.3436 186.396 27.4916C186.268 27.6396 186.1 27.7536 185.892 27.8336V27.8576C186.124 27.9096 186.32 28.0196 186.48 28.1876C186.64 28.3516 186.72 28.5656 186.72 28.8296C186.72 29.0536 186.664 29.2476 186.552 29.4116C186.44 29.5756 186.288 29.7016 186.096 29.7896C185.908 29.8776 185.696 29.9216 185.46 29.9216ZM178.125 38.7616V33.6016H179.199V33.8836H178.497V38.4796H179.199V38.7616H178.125ZM179.617 37.8496V37.5556C180.001 37.1716 180.327 36.8356 180.595 36.5476C180.863 36.2556 181.067 35.9936 181.207 35.7616C181.347 35.5256 181.417 35.3056 181.417 35.1016C181.417 34.8816 181.357 34.7016 181.237 34.5616C181.117 34.4216 180.935 34.3516 180.691 34.3516C180.531 34.3516 180.383 34.3976 180.247 34.4896C180.111 34.5776 179.987 34.6856 179.875 34.8136L179.593 34.5316C179.753 34.3556 179.923 34.2156 180.103 34.1116C180.287 34.0036 180.503 33.9496 180.751 33.9496C181.107 33.9496 181.387 34.0536 181.591 34.2616C181.795 34.4656 181.897 34.7376 181.897 35.0776C181.897 35.3176 181.829 35.5616 181.693 35.8096C181.561 36.0536 181.377 36.3116 181.141 36.5836C180.909 36.8516 180.641 37.1436 180.337 37.4596C180.441 37.4516 180.549 37.4436 180.661 37.4356C180.773 37.4276 180.879 37.4236 180.979 37.4236H182.089V37.8496H179.617ZM183.577 35.6476L183.391 36.2476H184.573L184.387 35.6476C184.315 35.4276 184.247 35.2096 184.183 34.9936C184.119 34.7736 184.055 34.5496 183.991 34.3216H183.967C183.907 34.5496 183.845 34.7736 183.781 34.9936C183.717 35.2096 183.649 35.4276 183.577 35.6476ZM182.377 37.8496L183.709 33.9136H184.273L185.605 37.8496H185.071L184.699 36.6496H183.265L182.887 37.8496H182.377ZM185.809 38.7616V38.4796H186.505V33.8836H185.809V33.6016H186.877V38.7616H185.809Z" fill="white"/>
<path d="M210.245 33.9216C209.901 33.9216 209.595 33.8416 209.327 33.6816C209.059 33.5176 208.849 33.2836 208.697 32.9796C208.545 32.6756 208.469 32.3096 208.469 31.8816C208.469 31.4576 208.547 31.0936 208.703 30.7896C208.859 30.4856 209.073 30.2516 209.345 30.0876C209.617 29.9236 209.927 29.8416 210.275 29.8416C210.547 29.8416 210.775 29.8936 210.959 29.9976C211.147 30.0976 211.297 30.2076 211.409 30.3276L211.133 30.6516C211.033 30.5476 210.917 30.4596 210.785 30.3876C210.653 30.3156 210.487 30.2796 210.287 30.2796C210.023 30.2796 209.793 30.3456 209.597 30.4776C209.401 30.6056 209.249 30.7876 209.141 31.0236C209.037 31.2596 208.985 31.5416 208.985 31.8696C208.985 32.3656 209.097 32.7596 209.321 33.0516C209.549 33.3396 209.873 33.4836 210.293 33.4836C210.433 33.4836 210.567 33.4636 210.695 33.4236C210.823 33.3796 210.925 33.3216 211.001 33.2496V32.2236H210.167V31.8096H211.457V33.4656C211.333 33.5976 211.165 33.7076 210.953 33.7956C210.745 33.8796 210.509 33.9216 210.245 33.9216ZM213.36 33.9216C213.12 33.9216 212.906 33.8776 212.718 33.7896C212.53 33.6976 212.38 33.5716 212.268 33.4116C212.16 33.2516 212.106 33.0716 212.106 32.8716C212.106 32.7036 212.14 32.5556 212.208 32.4276C212.28 32.2956 212.37 32.1816 212.478 32.0856C212.59 31.9856 212.706 31.9036 212.826 31.8396V31.8156C212.686 31.7156 212.562 31.5936 212.454 31.4496C212.346 31.3056 212.292 31.1336 212.292 30.9336C212.292 30.7376 212.34 30.5656 212.436 30.4176C212.532 30.2696 212.662 30.1556 212.826 30.0756C212.99 29.9916 213.174 29.9496 213.378 29.9496C213.71 29.9496 213.972 30.0456 214.164 30.2376C214.36 30.4296 214.458 30.6736 214.458 30.9696C214.458 31.1016 214.43 31.2276 214.374 31.3476C214.318 31.4636 214.25 31.5696 214.17 31.6656C214.09 31.7576 214.01 31.8336 213.93 31.8936V31.9176C214.046 31.9816 214.154 32.0576 214.254 32.1456C214.354 32.2336 214.436 32.3396 214.5 32.4636C214.564 32.5836 214.596 32.7296 214.596 32.9016C214.596 33.0896 214.544 33.2616 214.44 33.4176C214.34 33.5736 214.196 33.6976 214.008 33.7896C213.824 33.8776 213.608 33.9216 213.36 33.9216ZM213.63 31.7616C213.758 31.6456 213.856 31.5236 213.924 31.3956C213.996 31.2676 214.032 31.1336 214.032 30.9936C214.032 30.8056 213.974 30.6456 213.858 30.5136C213.742 30.3816 213.578 30.3156 213.366 30.3156C213.19 30.3156 213.042 30.3716 212.922 30.4836C212.806 30.5956 212.748 30.7456 212.748 30.9336C212.748 31.0856 212.788 31.2116 212.868 31.3116C212.952 31.4116 213.062 31.4976 213.198 31.5696C213.334 31.6376 213.478 31.7016 213.63 31.7616ZM213.372 33.5556C213.596 33.5556 213.776 33.4936 213.912 33.3696C214.052 33.2416 214.122 33.0796 214.122 32.8836C214.122 32.7196 214.074 32.5856 213.978 32.4816C213.882 32.3776 213.754 32.2876 213.594 32.2116C213.438 32.1356 213.268 32.0616 213.084 31.9896C212.932 32.0896 212.804 32.2096 212.7 32.3496C212.6 32.4896 212.55 32.6476 212.55 32.8236C212.55 33.0356 212.628 33.2116 212.784 33.3516C212.944 33.4876 213.14 33.5556 213.372 33.5556Z" fill="white"/>
<path d="M238.245 33.9216C237.901 33.9216 237.595 33.8416 237.327 33.6816C237.059 33.5176 236.849 33.2836 236.697 32.9796C236.545 32.6756 236.469 32.3096 236.469 31.8816C236.469 31.4576 236.547 31.0936 236.703 30.7896C236.859 30.4856 237.073 30.2516 237.345 30.0876C237.617 29.9236 237.927 29.8416 238.275 29.8416C238.547 29.8416 238.775 29.8936 238.959 29.9976C239.147 30.0976 239.297 30.2076 239.409 30.3276L239.133 30.6516C239.033 30.5476 238.917 30.4596 238.785 30.3876C238.653 30.3156 238.487 30.2796 238.287 30.2796C238.023 30.2796 237.793 30.3456 237.597 30.4776C237.401 30.6056 237.249 30.7876 237.141 31.0236C237.037 31.2596 236.985 31.5416 236.985 31.8696C236.985 32.3656 237.097 32.7596 237.321 33.0516C237.549 33.3396 237.873 33.4836 238.293 33.4836C238.433 33.4836 238.567 33.4636 238.695 33.4236C238.823 33.3796 238.925 33.3216 239.001 33.2496V32.2236H238.167V31.8096H239.457V33.4656C239.333 33.5976 239.165 33.7076 238.953 33.7956C238.745 33.8796 238.509 33.9216 238.245 33.9216ZM241.426 31.8816C241.302 31.8816 241.168 31.9216 241.024 32.0016C240.88 32.0816 240.748 32.2096 240.628 32.3856C240.66 32.7576 240.746 33.0416 240.886 33.2376C241.03 33.4336 241.224 33.5316 241.468 33.5316C241.656 33.5316 241.814 33.4556 241.942 33.3036C242.07 33.1476 242.134 32.9436 242.134 32.6916C242.134 32.4436 242.074 32.2476 241.954 32.1036C241.838 31.9556 241.662 31.8816 241.426 31.8816ZM241.468 33.9216C241.22 33.9216 240.996 33.8536 240.796 33.7176C240.596 33.5816 240.438 33.3776 240.322 33.1056C240.206 32.8296 240.148 32.4876 240.148 32.0796C240.148 31.5676 240.216 31.1556 240.352 30.8436C240.492 30.5316 240.672 30.3056 240.892 30.1656C241.116 30.0216 241.354 29.9496 241.606 29.9496C241.814 29.9496 241.992 29.9896 242.14 30.0696C242.292 30.1456 242.422 30.2416 242.53 30.3576L242.254 30.6636C242.178 30.5716 242.084 30.4996 241.972 30.4476C241.86 30.3916 241.744 30.3636 241.624 30.3636C241.444 30.3636 241.28 30.4156 241.132 30.5196C240.984 30.6196 240.862 30.7896 240.766 31.0296C240.674 31.2656 240.624 31.5856 240.616 31.9896C240.736 31.8416 240.876 31.7256 241.036 31.6416C241.196 31.5536 241.354 31.5096 241.51 31.5096C241.842 31.5096 242.106 31.6096 242.302 31.8096C242.502 32.0056 242.602 32.2996 242.602 32.6916C242.602 32.9356 242.55 33.1496 242.446 33.3336C242.342 33.5176 242.204 33.6616 242.032 33.7656C241.864 33.8696 241.676 33.9216 241.468 33.9216Z" fill="white"/>
<path d="M294.245 33.9216C293.901 33.9216 293.595 33.8416 293.327 33.6816C293.059 33.5176 292.849 33.2836 292.697 32.9796C292.545 32.6756 292.469 32.3096 292.469 31.8816C292.469 31.4576 292.547 31.0936 292.703 30.7896C292.859 30.4856 293.073 30.2516 293.345 30.0876C293.617 29.9236 293.927 29.8416 294.275 29.8416C294.547 29.8416 294.775 29.8936 294.959 29.9976C295.147 30.0976 295.297 30.2076 295.409 30.3276L295.133 30.6516C295.033 30.5476 294.917 30.4596 294.785 30.3876C294.653 30.3156 294.487 30.2796 294.287 30.2796C294.023 30.2796 293.793 30.3456 293.597 30.4776C293.401 30.6056 293.249 30.7876 293.141 31.0236C293.037 31.2596 292.985 31.5416 292.985 31.8696C292.985 32.3656 293.097 32.7596 293.321 33.0516C293.549 33.3396 293.873 33.4836 294.293 33.4836C294.433 33.4836 294.567 33.4636 294.695 33.4236C294.823 33.3796 294.925 33.3216 295.001 33.2496V32.2236H294.167V31.8096H295.457V33.4656C295.333 33.5976 295.165 33.7076 294.953 33.7956C294.745 33.8796 294.509 33.9216 294.245 33.9216ZM296.1 33.8496V33.5556C296.484 33.1716 296.81 32.8356 297.078 32.5476C297.346 32.2556 297.55 31.9936 297.69 31.7616C297.83 31.5256 297.9 31.3056 297.9 31.1016C297.9 30.8816 297.84 30.7016 297.72 30.5616C297.6 30.4216 297.418 30.3516 297.174 30.3516C297.014 30.3516 296.866 30.3976 296.73 30.4896C296.594 30.5776 296.47 30.6856 296.358 30.8136L296.076 30.5316C296.236 30.3556 296.406 30.2156 296.586 30.1116C296.77 30.0036 296.986 29.9496 297.234 29.9496C297.59 29.9496 297.87 30.0536 298.074 30.2616C298.278 30.4656 298.38 30.7376 298.38 31.0776C298.38 31.3176 298.312 31.5616 298.176 31.8096C298.044 32.0536 297.86 32.3116 297.624 32.5836C297.392 32.8516 297.124 33.1436 296.82 33.4596C296.924 33.4516 297.032 33.4436 297.144 33.4356C297.256 33.4276 297.362 33.4236 297.462 33.4236H298.572V33.8496H296.1Z" fill="white"/>
<path d="M319.136 29.8496V25.9136H319.634V29.8496H319.136ZM325.803 29.9216C325.475 29.9216 325.181 29.8416 324.921 29.6816C324.665 29.5176 324.461 29.2836 324.309 28.9796C324.161 28.6756 324.087 28.3096 324.087 27.8816C324.087 27.4576 324.163 27.0936 324.315 26.7896C324.467 26.4856 324.675 26.2516 324.939 26.0876C325.203 25.9236 325.501 25.8416 325.833 25.8416C326.073 25.8416 326.285 25.8916 326.469 25.9916C326.653 26.0876 326.801 26.1996 326.913 26.3276L326.643 26.6516C326.539 26.5396 326.421 26.4496 326.289 26.3816C326.157 26.3136 326.007 26.2796 325.839 26.2796C325.591 26.2796 325.373 26.3456 325.185 26.4776C325.001 26.6056 324.857 26.7876 324.753 27.0236C324.653 27.2596 324.603 27.5416 324.603 27.8696C324.603 28.1976 324.653 28.4836 324.753 28.7276C324.853 28.9676 324.993 29.1536 325.173 29.2856C325.357 29.4176 325.573 29.4836 325.821 29.4836C326.009 29.4836 326.177 29.4436 326.325 29.3636C326.473 29.2836 326.609 29.1756 326.733 29.0396L327.009 29.3516C326.853 29.5316 326.677 29.6716 326.481 29.7716C326.285 29.8716 326.059 29.9216 325.803 29.9216ZM320.081 37.9216C319.805 37.9216 319.549 37.8696 319.313 37.7656C319.077 37.6576 318.873 37.5156 318.701 37.3396L319.001 36.9916C319.141 37.1396 319.305 37.2596 319.493 37.3516C319.685 37.4396 319.883 37.4836 320.087 37.4836C320.347 37.4836 320.549 37.4256 320.693 37.3096C320.837 37.1896 320.909 37.0336 320.909 36.8416C320.909 36.7056 320.879 36.5976 320.819 36.5176C320.763 36.4376 320.685 36.3696 320.585 36.3136C320.489 36.2576 320.379 36.2016 320.255 36.1456L319.691 35.8996C319.567 35.8476 319.443 35.7796 319.319 35.6956C319.199 35.6116 319.097 35.5036 319.013 35.3716C318.933 35.2396 318.893 35.0776 318.893 34.8856C318.893 34.6856 318.945 34.5076 319.049 34.3516C319.157 34.1916 319.305 34.0676 319.493 33.9796C319.681 33.8876 319.893 33.8416 320.129 33.8416C320.365 33.8416 320.583 33.8876 320.783 33.9796C320.983 34.0676 321.153 34.1836 321.293 34.3276L321.023 34.6516C320.903 34.5356 320.769 34.4456 320.621 34.3816C320.477 34.3136 320.313 34.2796 320.129 34.2796C319.909 34.2796 319.731 34.3316 319.595 34.4356C319.463 34.5396 319.397 34.6796 319.397 34.8556C319.397 34.9796 319.429 35.0836 319.493 35.1676C319.561 35.2476 319.645 35.3136 319.745 35.3656C319.845 35.4176 319.947 35.4656 320.051 35.5096L320.609 35.7496C320.761 35.8136 320.897 35.8916 321.017 35.9836C321.141 36.0716 321.239 36.1816 321.311 36.3136C321.383 36.4416 321.419 36.6036 321.419 36.7996C321.419 37.0076 321.365 37.1976 321.257 37.3696C321.149 37.5376 320.995 37.6716 320.795 37.7716C320.595 37.8716 320.357 37.9216 320.081 37.9216ZM322.194 37.8496V33.9136H323.178C323.786 33.9136 324.248 34.0836 324.564 34.4236C324.88 34.7596 325.038 35.2396 325.038 35.8636C325.038 36.4916 324.88 36.9796 324.564 37.3276C324.252 37.6756 323.798 37.8496 323.202 37.8496H322.194ZM322.692 37.4416H323.142C323.602 37.4416 323.946 37.3036 324.174 37.0276C324.406 36.7476 324.522 36.3596 324.522 35.8636C324.522 35.3676 324.406 34.9876 324.174 34.7236C323.946 34.4556 323.602 34.3216 323.142 34.3216H322.692V37.4416ZM326.505 35.6476L326.319 36.2476H327.501L327.315 35.6476C327.243 35.4276 327.175 35.2096 327.111 34.9936C327.047 34.7736 326.983 34.5496 326.919 34.3216H326.895C326.835 34.5496 326.773 34.7736 326.709 34.9936C326.645 35.2096 326.577 35.4276 326.505 35.6476ZM325.305 37.8496L326.637 33.9136H327.201L328.533 37.8496H327.999L327.627 36.6496H326.193L325.815 37.8496H325.305Z" fill="white"/>
<path d="M333.136 85.8496V81.9136H333.634V85.8496H333.136ZM339.803 85.9216C339.475 85.9216 339.181 85.8416 338.921 85.6816C338.665 85.5176 338.461 85.2836 338.309 84.9796C338.161 84.6756 338.087 84.3096 338.087 83.8816C338.087 83.4576 338.163 83.0936 338.315 82.7896C338.467 82.4856 338.675 82.2516 338.939 82.0876C339.203 81.9236 339.501 81.8416 339.833 81.8416C340.073 81.8416 340.285 81.8916 340.469 81.9916C340.653 82.0876 340.801 82.1996 340.913 82.3276L340.643 82.6516C340.539 82.5396 340.421 82.4496 340.289 82.3816C340.157 82.3136 340.007 82.2796 339.839 82.2796C339.591 82.2796 339.373 82.3456 339.185 82.4776C339.001 82.6056 338.857 82.7876 338.753 83.0236C338.653 83.2596 338.603 83.5416 338.603 83.8696C338.603 84.1976 338.653 84.4836 338.753 84.7276C338.853 84.9676 338.993 85.1536 339.173 85.2856C339.357 85.4176 339.573 85.4836 339.821 85.4836C340.009 85.4836 340.177 85.4436 340.325 85.3636C340.473 85.2836 340.609 85.1756 340.733 85.0396L341.009 85.3516C340.853 85.5316 340.677 85.6716 340.481 85.7716C340.285 85.8716 340.059 85.9216 339.803 85.9216ZM334.357 93.9216C334.081 93.9216 333.825 93.8696 333.589 93.7656C333.353 93.6576 333.149 93.5156 332.977 93.3396L333.277 92.9916C333.417 93.1396 333.581 93.2596 333.769 93.3516C333.961 93.4396 334.159 93.4836 334.363 93.4836C334.623 93.4836 334.825 93.4256 334.969 93.3096C335.113 93.1896 335.185 93.0336 335.185 92.8416C335.185 92.7056 335.155 92.5976 335.095 92.5176C335.039 92.4376 334.961 92.3696 334.861 92.3136C334.765 92.2576 334.655 92.2016 334.531 92.1456L333.967 91.8996C333.843 91.8476 333.719 91.7796 333.595 91.6956C333.475 91.6116 333.373 91.5036 333.289 91.3716C333.209 91.2396 333.169 91.0776 333.169 90.8856C333.169 90.6856 333.221 90.5076 333.325 90.3516C333.433 90.1916 333.581 90.0676 333.769 89.9796C333.957 89.8876 334.169 89.8416 334.405 89.8416C334.641 89.8416 334.859 89.8876 335.059 89.9796C335.259 90.0676 335.429 90.1836 335.569 90.3276L335.299 90.6516C335.179 90.5356 335.045 90.4456 334.897 90.3816C334.753 90.3136 334.589 90.2796 334.405 90.2796C334.185 90.2796 334.007 90.3316 333.871 90.4356C333.739 90.5396 333.673 90.6796 333.673 90.8556C333.673 90.9796 333.705 91.0836 333.769 91.1676C333.837 91.2476 333.921 91.3136 334.021 91.3656C334.121 91.4176 334.223 91.4656 334.327 91.5096L334.885 91.7496C335.037 91.8136 335.173 91.8916 335.293 91.9836C335.417 92.0716 335.515 92.1816 335.587 92.3136C335.659 92.4416 335.695 92.6036 335.695 92.7996C335.695 93.0076 335.641 93.1976 335.533 93.3696C335.425 93.5376 335.271 93.6716 335.071 93.7716C334.871 93.8716 334.633 93.9216 334.357 93.9216ZM337.958 93.9216C337.63 93.9216 337.336 93.8416 337.076 93.6816C336.82 93.5176 336.616 93.2836 336.464 92.9796C336.316 92.6756 336.242 92.3096 336.242 91.8816C336.242 91.4576 336.318 91.0936 336.47 90.7896C336.622 90.4856 336.83 90.2516 337.094 90.0876C337.358 89.9236 337.656 89.8416 337.988 89.8416C338.228 89.8416 338.44 89.8916 338.624 89.9916C338.808 90.0876 338.956 90.1996 339.068 90.3276L338.798 90.6516C338.694 90.5396 338.576 90.4496 338.444 90.3816C338.312 90.3136 338.162 90.2796 337.994 90.2796C337.746 90.2796 337.528 90.3456 337.34 90.4776C337.156 90.6056 337.012 90.7876 336.908 91.0236C336.808 91.2596 336.758 91.5416 336.758 91.8696C336.758 92.1976 336.808 92.4836 336.908 92.7276C337.008 92.9676 337.148 93.1536 337.328 93.2856C337.512 93.4176 337.728 93.4836 337.976 93.4836C338.164 93.4836 338.332 93.4436 338.48 93.3636C338.628 93.2836 338.764 93.1756 338.888 93.0396L339.164 93.3516C339.008 93.5316 338.832 93.6716 338.636 93.7716C338.44 93.8716 338.214 93.9216 337.958 93.9216ZM339.897 93.8496V89.9136H340.395V93.4236H342.117V93.8496H339.897Z" fill="white"/>
<path d="M266.245 33.9216C265.901 33.9216 265.595 33.8416 265.327 33.6816C265.059 33.5176 264.849 33.2836 264.697 32.9796C264.545 32.6756 264.469 32.3096 264.469 31.8816C264.469 31.4576 264.547 31.0936 264.703 30.7896C264.859 30.4856 265.073 30.2516 265.345 30.0876C265.617 29.9236 265.927 29.8416 266.275 29.8416C266.547 29.8416 266.775 29.8936 266.959 29.9976C267.147 30.0976 267.297 30.2076 267.409 30.3276L267.133 30.6516C267.033 30.5476 266.917 30.4596 266.785 30.3876C266.653 30.3156 266.487 30.2796 266.287 30.2796C266.023 30.2796 265.793 30.3456 265.597 30.4776C265.401 30.6056 265.249 30.7876 265.141 31.0236C265.037 31.2596 264.985 31.5416 264.985 31.8696C264.985 32.3656 265.097 32.7596 265.321 33.0516C265.549 33.3396 265.873 33.4836 266.293 33.4836C266.433 33.4836 266.567 33.4636 266.695 33.4236C266.823 33.3796 266.925 33.3216 267.001 33.2496V32.2236H266.167V31.8096H267.457V33.4656C267.333 33.5976 267.165 33.7076 266.953 33.7956C266.745 33.8796 266.509 33.9216 266.245 33.9216ZM268.484 32.3976H269.684V31.2876C269.684 31.1836 269.688 31.0596 269.696 30.9156C269.704 30.7716 269.71 30.6496 269.714 30.5496H269.69C269.642 30.6416 269.592 30.7316 269.54 30.8196C269.488 30.9076 269.434 30.9976 269.378 31.0896L268.484 32.3976ZM269.684 33.8496V32.7936H267.962V32.4696L269.6 30.0216H270.152V32.3976H270.674V32.7936H270.152V33.8496H269.684Z" fill="white"/>
<path d="M123.442 29.9216C123.166 29.9216 122.91 29.8696 122.674 29.7656C122.438 29.6576 122.234 29.5156 122.062 29.3396L122.362 28.9916C122.502 29.1396 122.666 29.2596 122.854 29.3516C123.046 29.4396 123.244 29.4836 123.448 29.4836C123.708 29.4836 123.91 29.4256 124.054 29.3096C124.198 29.1896 124.27 29.0336 124.27 28.8416C124.27 28.7056 124.24 28.5976 124.18 28.5176C124.124 28.4376 124.046 28.3696 123.946 28.3136C123.85 28.2576 123.74 28.2016 123.616 28.1456L123.052 27.8996C122.928 27.8476 122.804 27.7796 122.68 27.6956C122.56 27.6116 122.458 27.5036 122.374 27.3716C122.294 27.2396 122.254 27.0776 122.254 26.8856C122.254 26.6856 122.306 26.5076 122.41 26.3516C122.518 26.1916 122.666 26.0676 122.854 25.9796C123.042 25.8876 123.254 25.8416 123.49 25.8416C123.726 25.8416 123.944 25.8876 124.144 25.9796C124.344 26.0676 124.514 26.1836 124.654 26.3276L124.384 26.6516C124.264 26.5356 124.13 26.4456 123.982 26.3816C123.838 26.3136 123.674 26.2796 123.49 26.2796C123.27 26.2796 123.092 26.3316 122.956 26.4356C122.824 26.5396 122.758 26.6796 122.758 26.8556C122.758 26.9796 122.79 27.0836 122.854 27.1676C122.922 27.2476 123.006 27.3136 123.106 27.3656C123.206 27.4176 123.308 27.4656 123.412 27.5096L123.97 27.7496C124.122 27.8136 124.258 27.8916 124.378 27.9836C124.502 28.0716 124.6 28.1816 124.672 28.3136C124.744 28.4416 124.78 28.6036 124.78 28.7996C124.78 29.0076 124.726 29.1976 124.618 29.3696C124.51 29.5376 124.356 29.6716 124.156 29.7716C123.956 29.8716 123.718 29.9216 123.442 29.9216ZM125.555 29.8496V25.9136H126.677C126.973 25.9136 127.231 25.9496 127.451 26.0216C127.671 26.0936 127.843 26.2156 127.967 26.3876C128.091 26.5556 128.153 26.7836 128.153 27.0716C128.153 27.4836 128.019 27.7896 127.751 27.9896C127.483 28.1896 127.133 28.2896 126.701 28.2896H126.053V29.8496H125.555ZM126.053 27.8816H126.641C126.985 27.8816 127.239 27.8176 127.403 27.6896C127.571 27.5576 127.655 27.3516 127.655 27.0716C127.655 26.7876 127.567 26.5916 127.391 26.4836C127.219 26.3716 126.961 26.3156 126.617 26.3156H126.053V27.8816ZM128.953 29.8496V25.9136H129.451V29.8496H128.953ZM123.794 37.9216C123.466 37.9216 123.172 37.8416 122.912 37.6816C122.656 37.5176 122.452 37.2836 122.3 36.9796C122.152 36.6756 122.078 36.3096 122.078 35.8816C122.078 35.4576 122.154 35.0936 122.306 34.7896C122.458 34.4856 122.666 34.2516 122.93 34.0876C123.194 33.9236 123.492 33.8416 123.824 33.8416C124.064 33.8416 124.276 33.8916 124.46 33.9916C124.644 34.0876 124.792 34.1996 124.904 34.3276L124.634 34.6516C124.53 34.5396 124.412 34.4496 124.28 34.3816C124.148 34.3136 123.998 34.2796 123.83 34.2796C123.582 34.2796 123.364 34.3456 123.176 34.4776C122.992 34.6056 122.848 34.7876 122.744 35.0236C122.644 35.2596 122.594 35.5416 122.594 35.8696C122.594 36.1976 122.644 36.4836 122.744 36.7276C122.844 36.9676 122.984 37.1536 123.164 37.2856C123.348 37.4176 123.564 37.4836 123.812 37.4836C124 37.4836 124.168 37.4436 124.316 37.3636C124.464 37.2836 124.6 37.1756 124.724 37.0396L125 37.3516C124.844 37.5316 124.668 37.6716 124.472 37.7716C124.276 37.8716 124.05 37.9216 123.794 37.9216ZM126.679 37.9216C126.403 37.9216 126.147 37.8696 125.911 37.7656C125.675 37.6576 125.471 37.5156 125.299 37.3396L125.599 36.9916C125.739 37.1396 125.903 37.2596 126.091 37.3516C126.283 37.4396 126.481 37.4836 126.685 37.4836C126.945 37.4836 127.147 37.4256 127.291 37.3096C127.435 37.1896 127.507 37.0336 127.507 36.8416C127.507 36.7056 127.477 36.5976 127.417 36.5176C127.361 36.4376 127.283 36.3696 127.183 36.3136C127.087 36.2576 126.977 36.2016 126.853 36.1456L126.289 35.8996C126.165 35.8476 126.041 35.7796 125.917 35.6956C125.797 35.6116 125.695 35.5036 125.611 35.3716C125.531 35.2396 125.491 35.0776 125.491 34.8856C125.491 34.6856 125.543 34.5076 125.647 34.3516C125.755 34.1916 125.903 34.0676 126.091 33.9796C126.279 33.8876 126.491 33.8416 126.727 33.8416C126.963 33.8416 127.181 33.8876 127.381 33.9796C127.581 34.0676 127.751 34.1836 127.891 34.3276L127.621 34.6516C127.501 34.5356 127.367 34.4456 127.219 34.3816C127.075 34.3136 126.911 34.2796 126.727 34.2796C126.507 34.2796 126.329 34.3316 126.193 34.4356C126.061 34.5396 125.995 34.6796 125.995 34.8556C125.995 34.9796 126.027 35.0836 126.091 35.1676C126.159 35.2476 126.243 35.3136 126.343 35.3656C126.443 35.4176 126.545 35.4656 126.649 35.5096L127.207 35.7496C127.359 35.8136 127.495 35.8916 127.615 35.9836C127.739 36.0716 127.837 36.1816 127.909 36.3136C127.981 36.4416 128.017 36.6036 128.017 36.7996C128.017 37.0076 127.963 37.1976 127.855 37.3696C127.747 37.5376 127.593 37.6716 127.393 37.7716C127.193 37.8716 126.955 37.9216 126.679 37.9216ZM128.876 36.3976H130.076V35.2876C130.076 35.1836 130.08 35.0596 130.088 34.9156C130.096 34.7716 130.102 34.6496 130.106 34.5496H130.082C130.034 34.6416 129.984 34.7316 129.932 34.8196C129.88 34.9076 129.826 34.9976 129.77 35.0896L128.876 36.3976ZM130.076 37.8496V36.7936H128.354V36.4696L129.992 34.0216H130.544V36.3976H131.066V36.7936H130.544V37.8496H130.076Z" fill="white"/>
<circle cx="83.5" cy="50.3496" r="5.5" fill="white"/>
<path d="M320.18 27.8496V27.6291C320.468 27.3411 320.713 27.0891 320.914 26.8731C321.115 26.6541 321.268 26.4576 321.373 26.2836C321.478 26.1066 321.53 25.9416 321.53 25.7886C321.53 25.6236 321.485 25.4886 321.395 25.3836C321.305 25.2786 321.169 25.2261 320.986 25.2261C320.866 25.2261 320.755 25.2606 320.653 25.3296C320.551 25.3956 320.458 25.4766 320.374 25.5726L320.162 25.3611C320.282 25.2291 320.41 25.1241 320.545 25.0461C320.683 24.9651 320.845 24.9246 321.031 24.9246C321.298 24.9246 321.508 25.0026 321.661 25.1586C321.814 25.3116 321.89 25.5156 321.89 25.7706C321.89 25.9506 321.839 26.1336 321.737 26.3196C321.638 26.5026 321.5 26.6961 321.323 26.9001C321.149 27.1011 320.948 27.3201 320.72 27.5571C320.798 27.5511 320.879 27.5451 320.963 27.5391C321.047 27.5331 321.127 27.5301 321.202 27.5301H322.034V27.8496H320.18Z" fill="white"/>
<path d="M334.18 83.8496V83.6291C334.468 83.3411 334.713 83.0891 334.914 82.8731C335.115 82.6541 335.268 82.4576 335.373 82.2836C335.478 82.1066 335.53 81.9416 335.53 81.7886C335.53 81.6236 335.485 81.4886 335.395 81.3836C335.305 81.2786 335.169 81.2261 334.986 81.2261C334.866 81.2261 334.755 81.2606 334.653 81.3296C334.551 81.3956 334.458 81.4766 334.374 81.5726L334.162 81.3611C334.282 81.2291 334.41 81.1241 334.545 81.0461C334.683 80.9651 334.845 80.9246 335.031 80.9246C335.298 80.9246 335.508 81.0026 335.661 81.1586C335.814 81.3116 335.89 81.5156 335.89 81.7706C335.89 81.9506 335.839 82.1336 335.737 82.3196C335.638 82.5026 335.5 82.6961 335.323 82.9001C335.149 83.1011 334.948 83.3201 334.72 83.5571C334.798 83.5511 334.879 83.5451 334.963 83.5391C335.047 83.5331 335.127 83.5301 335.202 83.5301H336.034V83.8496H334.18Z" fill="white"/>
<path d="M349.442 29.9216C349.166 29.9216 348.91 29.8696 348.674 29.7656C348.438 29.6576 348.234 29.5156 348.062 29.3396L348.362 28.9916C348.502 29.1396 348.666 29.2596 348.854 29.3516C349.046 29.4396 349.244 29.4836 349.448 29.4836C349.708 29.4836 349.91 29.4256 350.054 29.3096C350.198 29.1896 350.27 29.0336 350.27 28.8416C350.27 28.7056 350.24 28.5976 350.18 28.5176C350.124 28.4376 350.046 28.3696 349.946 28.3136C349.85 28.2576 349.74 28.2016 349.616 28.1456L349.052 27.8996C348.928 27.8476 348.804 27.7796 348.68 27.6956C348.56 27.6116 348.458 27.5036 348.374 27.3716C348.294 27.2396 348.254 27.0776 348.254 26.8856C348.254 26.6856 348.306 26.5076 348.41 26.3516C348.518 26.1916 348.666 26.0676 348.854 25.9796C349.042 25.8876 349.254 25.8416 349.49 25.8416C349.726 25.8416 349.944 25.8876 350.144 25.9796C350.344 26.0676 350.514 26.1836 350.654 26.3276L350.384 26.6516C350.264 26.5356 350.13 26.4456 349.982 26.3816C349.838 26.3136 349.674 26.2796 349.49 26.2796C349.27 26.2796 349.092 26.3316 348.956 26.4356C348.824 26.5396 348.758 26.6796 348.758 26.8556C348.758 26.9796 348.79 27.0836 348.854 27.1676C348.922 27.2476 349.006 27.3136 349.106 27.3656C349.206 27.4176 349.308 27.4656 349.412 27.5096L349.97 27.7496C350.122 27.8136 350.258 27.8916 350.378 27.9836C350.502 28.0716 350.6 28.1816 350.672 28.3136C350.744 28.4416 350.78 28.6036 350.78 28.7996C350.78 29.0076 350.726 29.1976 350.618 29.3696C350.51 29.5376 350.356 29.6716 350.156 29.7716C349.956 29.8716 349.718 29.9216 349.442 29.9216ZM351.555 29.8496V25.9136H352.677C352.973 25.9136 353.231 25.9496 353.451 26.0216C353.671 26.0936 353.843 26.2156 353.967 26.3876C354.091 26.5556 354.153 26.7836 354.153 27.0716C354.153 27.4836 354.019 27.7896 353.751 27.9896C353.483 28.1896 353.133 28.2896 352.701 28.2896H352.053V29.8496H351.555ZM352.053 27.8816H352.641C352.985 27.8816 353.239 27.8176 353.403 27.6896C353.571 27.5576 353.655 27.3516 353.655 27.0716C353.655 26.7876 353.567 26.5916 353.391 26.4836C353.219 26.3716 352.961 26.3156 352.617 26.3156H352.053V27.8816ZM354.953 29.8496V25.9136H355.451V29.8496H354.953ZM349.618 37.9216C349.29 37.9216 348.996 37.8416 348.736 37.6816C348.48 37.5176 348.276 37.2836 348.124 36.9796C347.976 36.6756 347.902 36.3096 347.902 35.8816C347.902 35.4576 347.978 35.0936 348.13 34.7896C348.282 34.4856 348.49 34.2516 348.754 34.0876C349.018 33.9236 349.316 33.8416 349.648 33.8416C349.888 33.8416 350.1 33.8916 350.284 33.9916C350.468 34.0876 350.616 34.1996 350.728 34.3276L350.458 34.6516C350.354 34.5396 350.236 34.4496 350.104 34.3816C349.972 34.3136 349.822 34.2796 349.654 34.2796C349.406 34.2796 349.188 34.3456 349 34.4776C348.816 34.6056 348.672 34.7876 348.568 35.0236C348.468 35.2596 348.418 35.5416 348.418 35.8696C348.418 36.1976 348.468 36.4836 348.568 36.7276C348.668 36.9676 348.808 37.1536 348.988 37.2856C349.172 37.4176 349.388 37.4836 349.636 37.4836C349.824 37.4836 349.992 37.4436 350.14 37.3636C350.288 37.2836 350.424 37.1756 350.548 37.0396L350.824 37.3516C350.668 37.5316 350.492 37.6716 350.296 37.7716C350.1 37.8716 349.874 37.9216 349.618 37.9216ZM351.558 37.8496V33.9136H352.056V37.4236H353.778V37.8496H351.558ZM354.476 37.8496V33.9136H354.974V35.8876H354.992L356.63 33.9136H357.194L355.964 35.4136L357.386 37.8496H356.828L355.652 35.8036L354.974 36.6016V37.8496H354.476Z" fill="white"/>
<path d="M377.442 29.9216C377.166 29.9216 376.91 29.8696 376.674 29.7656C376.438 29.6576 376.234 29.5156 376.062 29.3396L376.362 28.9916C376.502 29.1396 376.666 29.2596 376.854 29.3516C377.046 29.4396 377.244 29.4836 377.448 29.4836C377.708 29.4836 377.91 29.4256 378.054 29.3096C378.198 29.1896 378.27 29.0336 378.27 28.8416C378.27 28.7056 378.24 28.5976 378.18 28.5176C378.124 28.4376 378.046 28.3696 377.946 28.3136C377.85 28.2576 377.74 28.2016 377.616 28.1456L377.052 27.8996C376.928 27.8476 376.804 27.7796 376.68 27.6956C376.56 27.6116 376.458 27.5036 376.374 27.3716C376.294 27.2396 376.254 27.0776 376.254 26.8856C376.254 26.6856 376.306 26.5076 376.41 26.3516C376.518 26.1916 376.666 26.0676 376.854 25.9796C377.042 25.8876 377.254 25.8416 377.49 25.8416C377.726 25.8416 377.944 25.8876 378.144 25.9796C378.344 26.0676 378.514 26.1836 378.654 26.3276L378.384 26.6516C378.264 26.5356 378.13 26.4456 377.982 26.3816C377.838 26.3136 377.674 26.2796 377.49 26.2796C377.27 26.2796 377.092 26.3316 376.956 26.4356C376.824 26.5396 376.758 26.6796 376.758 26.8556C376.758 26.9796 376.79 27.0836 376.854 27.1676C376.922 27.2476 377.006 27.3136 377.106 27.3656C377.206 27.4176 377.308 27.4656 377.412 27.5096L377.97 27.7496C378.122 27.8136 378.258 27.8916 378.378 27.9836C378.502 28.0716 378.6 28.1816 378.672 28.3136C378.744 28.4416 378.78 28.6036 378.78 28.7996C378.78 29.0076 378.726 29.1976 378.618 29.3696C378.51 29.5376 378.356 29.6716 378.156 29.7716C377.956 29.8716 377.718 29.9216 377.442 29.9216ZM379.555 29.8496V25.9136H380.677C380.973 25.9136 381.231 25.9496 381.451 26.0216C381.671 26.0936 381.843 26.2156 381.967 26.3876C382.091 26.5556 382.153 26.7836 382.153 27.0716C382.153 27.4836 382.019 27.7896 381.751 27.9896C381.483 28.1896 381.133 28.2896 380.701 28.2896H380.053V29.8496H379.555ZM380.053 27.8816H380.641C380.985 27.8816 381.239 27.8176 381.403 27.6896C381.571 27.5576 381.655 27.3516 381.655 27.0716C381.655 26.7876 381.567 26.5916 381.391 26.4836C381.219 26.3716 380.961 26.3156 380.617 26.3156H380.053V27.8816ZM382.953 29.8496V25.9136H383.451V29.8496H382.953ZM374.478 37.8496V33.9136H375.078L375.834 36.0136C375.882 36.1496 375.928 36.2876 375.972 36.4276C376.02 36.5636 376.068 36.6996 376.116 36.8356H376.14C376.188 36.6996 376.232 36.5636 376.272 36.4276C376.316 36.2876 376.362 36.1496 376.41 36.0136L377.154 33.9136H377.76V37.8496H377.292V35.6836C377.292 35.5076 377.3 35.3136 377.316 35.1016C377.332 34.8856 377.346 34.6916 377.358 34.5196H377.334L377.021 35.4136L376.278 37.4536H375.948L375.204 35.4136L374.892 34.5196H374.868C374.88 34.6916 374.892 34.8856 374.904 35.1016C374.92 35.3136 374.928 35.5076 374.928 35.6836V37.8496H374.478ZM378.837 37.8496V33.9136H379.335V37.8496H378.837ZM381.505 37.9216C381.229 37.9216 380.973 37.8696 380.737 37.7656C380.501 37.6576 380.297 37.5156 380.125 37.3396L380.425 36.9916C380.565 37.1396 380.729 37.2596 380.917 37.3516C381.109 37.4396 381.307 37.4836 381.511 37.4836C381.771 37.4836 381.973 37.4256 382.117 37.3096C382.261 37.1896 382.333 37.0336 382.333 36.8416C382.333 36.7056 382.303 36.5976 382.243 36.5176C382.187 36.4376 382.109 36.3696 382.009 36.3136C381.913 36.2576 381.803 36.2016 381.679 36.1456L381.115 35.8996C380.991 35.8476 380.867 35.7796 380.743 35.6956C380.623 35.6116 380.521 35.5036 380.437 35.3716C380.357 35.2396 380.317 35.0776 380.317 34.8856C380.317 34.6856 380.369 34.5076 380.473 34.3516C380.581 34.1916 380.729 34.0676 380.917 33.9796C381.105 33.8876 381.317 33.8416 381.553 33.8416C381.789 33.8416 382.007 33.8876 382.207 33.9796C382.407 34.0676 382.577 34.1836 382.717 34.3276L382.447 34.6516C382.327 34.5356 382.193 34.4456 382.045 34.3816C381.901 34.3136 381.737 34.2796 381.553 34.2796C381.333 34.2796 381.155 34.3316 381.019 34.4356C380.887 34.5396 380.821 34.6796 380.821 34.8556C380.821 34.9796 380.853 35.0836 380.917 35.1676C380.985 35.2476 381.069 35.3136 381.169 35.3656C381.269 35.4176 381.371 35.4656 381.475 35.5096L382.033 35.7496C382.185 35.8136 382.321 35.8916 382.441 35.9836C382.565 36.0716 382.663 36.1816 382.735 36.3136C382.807 36.4416 382.843 36.6036 382.843 36.7996C382.843 37.0076 382.789 37.1976 382.681 37.3696C382.573 37.5376 382.419 37.6716 382.219 37.7716C382.019 37.8716 381.781 37.9216 381.505 37.9216ZM385.07 37.9216C384.742 37.9216 384.45 37.8376 384.194 37.6696C383.942 37.5016 383.744 37.2636 383.6 36.9556C383.46 36.6476 383.39 36.2836 383.39 35.8636C383.39 35.4436 383.46 35.0836 383.6 34.7836C383.744 34.4796 383.942 34.2476 384.194 34.0876C384.45 33.9236 384.742 33.8416 385.07 33.8416C385.402 33.8416 385.694 33.9236 385.946 34.0876C386.198 34.2476 386.396 34.4796 386.54 34.7836C386.684 35.0836 386.756 35.4436 386.756 35.8636C386.756 36.2836 386.684 36.6476 386.54 36.9556C386.396 37.2636 386.198 37.5016 385.946 37.6696C385.694 37.8376 385.402 37.9216 385.07 37.9216ZM385.07 37.4836C385.306 37.4836 385.51 37.4176 385.682 37.2856C385.858 37.1496 385.994 36.9616 386.09 36.7216C386.186 36.4776 386.234 36.1916 386.234 35.8636C386.234 35.3756 386.128 34.9896 385.916 34.7056C385.704 34.4216 385.422 34.2796 385.07 34.2796C384.718 34.2796 384.436 34.4216 384.224 34.7056C384.012 34.9896 383.906 35.3756 383.906 35.8636C383.906 36.1916 383.954 36.4776 384.05 36.7216C384.146 36.9616 384.282 37.1496 384.458 37.2856C384.634 37.4176 384.838 37.4836 385.07 37.4836Z" fill="white"/>
<path d="M79.9484 89.9216C79.6044 89.9216 79.2984 89.8416 79.0304 89.6816C78.7624 89.5176 78.5524 89.2836 78.4004 88.9796C78.2484 88.6756 78.1724 88.3096 78.1724 87.8816C78.1724 87.4576 78.2504 87.0936 78.4064 86.7896C78.5624 86.4856 78.7764 86.2516 79.0484 86.0876C79.3204 85.9236 79.6304 85.8416 79.9784 85.8416C80.2504 85.8416 80.4784 85.8936 80.6624 85.9976C80.8504 86.0976 81.0004 86.2076 81.1124 86.3276L80.8364 86.6516C80.7364 86.5476 80.6204 86.4596 80.4884 86.3876C80.3564 86.3156 80.1904 86.2796 79.9904 86.2796C79.7264 86.2796 79.4964 86.3456 79.3004 86.4776C79.1044 86.6056 78.9524 86.7876 78.8444 87.0236C78.7404 87.2596 78.6884 87.5416 78.6884 87.8696C78.6884 88.3656 78.8004 88.7596 79.0244 89.0516C79.2524 89.3396 79.5764 89.4836 79.9964 89.4836C80.1364 89.4836 80.2704 89.4636 80.3984 89.4236C80.5264 89.3796 80.6284 89.3216 80.7044 89.2496V88.2236H79.8704V87.8096H81.1604V89.4656C81.0364 89.5976 80.8684 89.7076 80.6564 89.7956C80.4484 89.8796 80.2124 89.9216 79.9484 89.9216ZM82.1035 89.8496V85.9136H82.6195L84.0415 88.3856L84.4675 89.2016H84.4915C84.4795 89.0016 84.4655 88.7956 84.4495 88.5836C84.4375 88.3676 84.4315 88.1556 84.4315 87.9476V85.9136H84.9055V89.8496H84.3895L82.9615 87.3716L82.5355 86.5616H82.5115C82.5275 86.7576 82.5415 86.9596 82.5535 87.1676C82.5695 87.3756 82.5775 87.5836 82.5775 87.7916V89.8496H82.1035ZM85.9882 89.8496V85.9136H86.9722C87.5802 85.9136 88.0422 86.0836 88.3582 86.4236C88.6742 86.7596 88.8322 87.2396 88.8322 87.8636C88.8322 88.4916 88.6742 88.9796 88.3582 89.3276C88.0462 89.6756 87.5922 89.8496 86.9962 89.8496H85.9882ZM86.4862 89.4416H86.9362C87.3962 89.4416 87.7402 89.3036 87.9682 89.0276C88.2002 88.7476 88.3162 88.3596 88.3162 87.8636C88.3162 87.3676 88.2002 86.9876 87.9682 86.7236C87.7402 86.4556 87.3962 86.3216 86.9362 86.3216H86.4862V89.4416Z" fill="white"/>
<path d="M107.948 89.9216C107.604 89.9216 107.298 89.8416 107.03 89.6816C106.762 89.5176 106.552 89.2836 106.4 88.9796C106.248 88.6756 106.172 88.3096 106.172 87.8816C106.172 87.4576 106.25 87.0936 106.406 86.7896C106.562 86.4856 106.776 86.2516 107.048 86.0876C107.32 85.9236 107.63 85.8416 107.978 85.8416C108.25 85.8416 108.478 85.8936 108.662 85.9976C108.85 86.0976 109 86.2076 109.112 86.3276L108.836 86.6516C108.736 86.5476 108.62 86.4596 108.488 86.3876C108.356 86.3156 108.19 86.2796 107.99 86.2796C107.726 86.2796 107.496 86.3456 107.3 86.4776C107.104 86.6056 106.952 86.7876 106.844 87.0236C106.74 87.2596 106.688 87.5416 106.688 87.8696C106.688 88.3656 106.8 88.7596 107.024 89.0516C107.252 89.3396 107.576 89.4836 107.996 89.4836C108.136 89.4836 108.27 89.4636 108.398 89.4236C108.526 89.3796 108.628 89.3216 108.704 89.2496V88.2236H107.87V87.8096H109.16V89.4656C109.036 89.5976 108.868 89.7076 108.656 89.7956C108.448 89.8796 108.212 89.9216 107.948 89.9216ZM110.103 89.8496V85.9136H110.619L112.041 88.3856L112.467 89.2016H112.491C112.479 89.0016 112.465 88.7956 112.449 88.5836C112.437 88.3676 112.431 88.1556 112.431 87.9476V85.9136H112.905V89.8496H112.389L110.961 87.3716L110.535 86.5616H110.511C110.527 86.7576 110.541 86.9596 110.553 87.1676C110.569 87.3756 110.577 87.5836 110.577 87.7916V89.8496H110.103ZM113.988 89.8496V85.9136H114.972C115.58 85.9136 116.042 86.0836 116.358 86.4236C116.674 86.7596 116.832 87.2396 116.832 87.8636C116.832 88.4916 116.674 88.9796 116.358 89.3276C116.046 89.6756 115.592 89.8496 114.996 89.8496H113.988ZM114.486 89.4416H114.936C115.396 89.4416 115.74 89.3036 115.968 89.0276C116.2 88.7476 116.316 88.3596 116.316 87.8636C116.316 87.3676 116.2 86.9876 115.968 86.7236C115.74 86.4556 115.396 86.3216 114.936 86.3216H114.486V89.4416Z" fill="white"/>
<path d="M404.948 33.9216C404.604 33.9216 404.298 33.8416 404.03 33.6816C403.762 33.5176 403.552 33.2836 403.4 32.9796C403.248 32.6756 403.172 32.3096 403.172 31.8816C403.172 31.4576 403.25 31.0936 403.406 30.7896C403.562 30.4856 403.776 30.2516 404.048 30.0876C404.32 29.9236 404.63 29.8416 404.978 29.8416C405.25 29.8416 405.478 29.8936 405.662 29.9976C405.85 30.0976 406 30.2076 406.112 30.3276L405.836 30.6516C405.736 30.5476 405.62 30.4596 405.488 30.3876C405.356 30.3156 405.19 30.2796 404.99 30.2796C404.726 30.2796 404.496 30.3456 404.3 30.4776C404.104 30.6056 403.952 30.7876 403.844 31.0236C403.74 31.2596 403.688 31.5416 403.688 31.8696C403.688 32.3656 403.8 32.7596 404.024 33.0516C404.252 33.3396 404.576 33.4836 404.996 33.4836C405.136 33.4836 405.27 33.4636 405.398 33.4236C405.526 33.3796 405.628 33.3216 405.704 33.2496V32.2236H404.87V31.8096H406.16V33.4656C406.036 33.5976 405.868 33.7076 405.656 33.7956C405.448 33.8796 405.212 33.9216 404.948 33.9216ZM407.103 33.8496V29.9136H407.619L409.041 32.3856L409.467 33.2016H409.491C409.479 33.0016 409.465 32.7956 409.449 32.5836C409.437 32.3676 409.431 32.1556 409.431 31.9476V29.9136H409.905V33.8496H409.389L407.961 31.3716L407.535 30.5616H407.511C407.527 30.7576 407.541 30.9596 407.553 31.1676C407.569 31.3756 407.577 31.5836 407.577 31.7916V33.8496H407.103ZM410.988 33.8496V29.9136H411.972C412.58 29.9136 413.042 30.0836 413.358 30.4236C413.674 30.7596 413.832 31.2396 413.832 31.8636C413.832 32.4916 413.674 32.9796 413.358 33.3276C413.046 33.6756 412.592 33.8496 411.996 33.8496H410.988ZM411.486 33.4416H411.936C412.396 33.4416 412.74 33.3036 412.968 33.0276C413.2 32.7476 413.316 32.3596 413.316 31.8636C413.316 31.3676 413.2 30.9876 412.968 30.7236C412.74 30.4556 412.396 30.3216 411.936 30.3216H411.486V33.4416Z" fill="white"/>
<path d="M138.042 85.9216C137.766 85.9216 137.51 85.8696 137.274 85.7656C137.038 85.6576 136.834 85.5156 136.662 85.3396L136.962 84.9916C137.102 85.1396 137.266 85.2596 137.454 85.3516C137.646 85.4396 137.844 85.4836 138.048 85.4836C138.308 85.4836 138.51 85.4256 138.654 85.3096C138.798 85.1896 138.87 85.0336 138.87 84.8416C138.87 84.7056 138.84 84.5976 138.78 84.5176C138.724 84.4376 138.646 84.3696 138.546 84.3136C138.45 84.2576 138.34 84.2016 138.216 84.1456L137.652 83.8996C137.528 83.8476 137.404 83.7796 137.28 83.6956C137.16 83.6116 137.058 83.5036 136.974 83.3716C136.894 83.2396 136.854 83.0776 136.854 82.8856C136.854 82.6856 136.906 82.5076 137.01 82.3516C137.118 82.1916 137.266 82.0676 137.454 81.9796C137.642 81.8876 137.854 81.8416 138.09 81.8416C138.326 81.8416 138.544 81.8876 138.744 81.9796C138.944 82.0676 139.114 82.1836 139.254 82.3276L138.984 82.6516C138.864 82.5356 138.73 82.4456 138.582 82.3816C138.438 82.3136 138.274 82.2796 138.09 82.2796C137.87 82.2796 137.692 82.3316 137.556 82.4356C137.424 82.5396 137.358 82.6796 137.358 82.8556C137.358 82.9796 137.39 83.0836 137.454 83.1676C137.522 83.2476 137.606 83.3136 137.706 83.3656C137.806 83.4176 137.908 83.4656 138.012 83.5096L138.57 83.7496C138.722 83.8136 138.858 83.8916 138.978 83.9836C139.102 84.0716 139.2 84.1816 139.272 84.3136C139.344 84.4416 139.38 84.6036 139.38 84.7996C139.38 85.0076 139.326 85.1976 139.218 85.3696C139.11 85.5376 138.956 85.6716 138.756 85.7716C138.556 85.8716 138.318 85.9216 138.042 85.9216ZM140.155 85.8496V81.9136H141.277C141.573 81.9136 141.831 81.9496 142.051 82.0216C142.271 82.0936 142.443 82.2156 142.567 82.3876C142.691 82.5556 142.753 82.7836 142.753 83.0716C142.753 83.4836 142.619 83.7896 142.351 83.9896C142.083 84.1896 141.733 84.2896 141.301 84.2896H140.653V85.8496H140.155ZM140.653 83.8816H141.241C141.585 83.8816 141.839 83.8176 142.003 83.6896C142.171 83.5576 142.255 83.3516 142.255 83.0716C142.255 82.7876 142.167 82.5916 141.991 82.4836C141.819 82.3716 141.561 82.3156 141.217 82.3156H140.653V83.8816ZM143.554 85.8496V81.9136H144.052V85.8496H143.554ZM137.794 93.9216C137.466 93.9216 137.172 93.8416 136.912 93.6816C136.656 93.5176 136.452 93.2836 136.3 92.9796C136.152 92.6756 136.078 92.3096 136.078 91.8816C136.078 91.4576 136.154 91.0936 136.306 90.7896C136.458 90.4856 136.666 90.2516 136.93 90.0876C137.194 89.9236 137.492 89.8416 137.824 89.8416C138.064 89.8416 138.276 89.8916 138.46 89.9916C138.644 90.0876 138.792 90.1996 138.904 90.3276L138.634 90.6516C138.53 90.5396 138.412 90.4496 138.28 90.3816C138.148 90.3136 137.998 90.2796 137.83 90.2796C137.582 90.2796 137.364 90.3456 137.176 90.4776C136.992 90.6056 136.848 90.7876 136.744 91.0236C136.644 91.2596 136.594 91.5416 136.594 91.8696C136.594 92.1976 136.644 92.4836 136.744 92.7276C136.844 92.9676 136.984 93.1536 137.164 93.2856C137.348 93.4176 137.564 93.4836 137.812 93.4836C138 93.4836 138.168 93.4436 138.316 93.3636C138.464 93.2836 138.6 93.1756 138.724 93.0396L139 93.3516C138.844 93.5316 138.668 93.6716 138.472 93.7716C138.276 93.8716 138.05 93.9216 137.794 93.9216ZM140.679 93.9216C140.403 93.9216 140.147 93.8696 139.911 93.7656C139.675 93.6576 139.471 93.5156 139.299 93.3396L139.599 92.9916C139.739 93.1396 139.903 93.2596 140.091 93.3516C140.283 93.4396 140.481 93.4836 140.685 93.4836C140.945 93.4836 141.147 93.4256 141.291 93.3096C141.435 93.1896 141.507 93.0336 141.507 92.8416C141.507 92.7056 141.477 92.5976 141.417 92.5176C141.361 92.4376 141.283 92.3696 141.183 92.3136C141.087 92.2576 140.977 92.2016 140.853 92.1456L140.289 91.8996C140.165 91.8476 140.041 91.7796 139.917 91.6956C139.797 91.6116 139.695 91.5036 139.611 91.3716C139.531 91.2396 139.491 91.0776 139.491 90.8856C139.491 90.6856 139.543 90.5076 139.647 90.3516C139.755 90.1916 139.903 90.0676 140.091 89.9796C140.279 89.8876 140.491 89.8416 140.727 89.8416C140.963 89.8416 141.181 89.8876 141.381 89.9796C141.581 90.0676 141.751 90.1836 141.891 90.3276L141.621 90.6516C141.501 90.5356 141.367 90.4456 141.219 90.3816C141.075 90.3136 140.911 90.2796 140.727 90.2796C140.507 90.2796 140.329 90.3316 140.193 90.4356C140.061 90.5396 139.995 90.6796 139.995 90.8556C139.995 90.9796 140.027 91.0836 140.091 91.1676C140.159 91.2476 140.243 91.3136 140.343 91.3656C140.443 91.4176 140.545 91.4656 140.649 91.5096L141.207 91.7496C141.359 91.8136 141.495 91.8916 141.615 91.9836C141.739 92.0716 141.837 92.1816 141.909 92.3136C141.981 92.4416 142.017 92.6036 142.017 92.7996C142.017 93.0076 141.963 93.1976 141.855 93.3696C141.747 93.5376 141.593 93.6716 141.393 93.7716C141.193 93.8716 140.955 93.9216 140.679 93.9216ZM143.668 93.9216C143.364 93.9216 143.11 93.8676 142.906 93.7596C142.702 93.6476 142.536 93.5216 142.408 93.3816L142.66 93.0576C142.776 93.1776 142.912 93.2836 143.068 93.3756C143.224 93.4676 143.414 93.5136 143.638 93.5136C143.87 93.5136 144.06 93.4496 144.208 93.3216C144.356 93.1936 144.43 93.0236 144.43 92.8116C144.43 92.6596 144.39 92.5276 144.31 92.4156C144.234 92.2996 144.106 92.2096 143.926 92.1456C143.75 92.0816 143.51 92.0496 143.206 92.0496V91.6716C143.478 91.6716 143.692 91.6396 143.848 91.5756C144.008 91.5116 144.122 91.4256 144.19 91.3176C144.258 91.2096 144.292 91.0896 144.292 90.9576C144.292 90.7696 144.232 90.6216 144.112 90.5136C143.996 90.4056 143.836 90.3516 143.632 90.3516C143.472 90.3516 143.324 90.3876 143.188 90.4596C143.056 90.5316 142.932 90.6256 142.816 90.7416L142.552 90.4296C142.7 90.2896 142.864 90.1756 143.044 90.0876C143.224 89.9956 143.426 89.9496 143.65 89.9496C143.982 89.9496 144.256 90.0356 144.472 90.2076C144.688 90.3756 144.796 90.6136 144.796 90.9216C144.796 91.1536 144.732 91.3436 144.604 91.4916C144.476 91.6396 144.308 91.7536 144.1 91.8336V91.8576C144.332 91.9096 144.528 92.0196 144.688 92.1876C144.848 92.3516 144.928 92.5656 144.928 92.8296C144.928 93.0536 144.872 93.2476 144.76 93.4116C144.648 93.5756 144.496 93.7016 144.304 93.7896C144.116 93.8776 143.904 93.9216 143.668 93.9216Z" fill="white"/>
<path d="M165.442 85.9216C165.166 85.9216 164.91 85.8696 164.674 85.7656C164.438 85.6576 164.234 85.5156 164.062 85.3396L164.362 84.9916C164.502 85.1396 164.666 85.2596 164.854 85.3516C165.046 85.4396 165.244 85.4836 165.448 85.4836C165.708 85.4836 165.91 85.4256 166.054 85.3096C166.198 85.1896 166.27 85.0336 166.27 84.8416C166.27 84.7056 166.24 84.5976 166.18 84.5176C166.124 84.4376 166.046 84.3696 165.946 84.3136C165.85 84.2576 165.74 84.2016 165.616 84.1456L165.052 83.8996C164.928 83.8476 164.804 83.7796 164.68 83.6956C164.56 83.6116 164.458 83.5036 164.374 83.3716C164.294 83.2396 164.254 83.0776 164.254 82.8856C164.254 82.6856 164.306 82.5076 164.41 82.3516C164.518 82.1916 164.666 82.0676 164.854 81.9796C165.042 81.8876 165.254 81.8416 165.49 81.8416C165.726 81.8416 165.944 81.8876 166.144 81.9796C166.344 82.0676 166.514 82.1836 166.654 82.3276L166.384 82.6516C166.264 82.5356 166.13 82.4456 165.982 82.3816C165.838 82.3136 165.674 82.2796 165.49 82.2796C165.27 82.2796 165.092 82.3316 164.956 82.4356C164.824 82.5396 164.758 82.6796 164.758 82.8556C164.758 82.9796 164.79 83.0836 164.854 83.1676C164.922 83.2476 165.006 83.3136 165.106 83.3656C165.206 83.4176 165.308 83.4656 165.412 83.5096L165.97 83.7496C166.122 83.8136 166.258 83.8916 166.378 83.9836C166.502 84.0716 166.6 84.1816 166.672 84.3136C166.744 84.4416 166.78 84.6036 166.78 84.7996C166.78 85.0076 166.726 85.1976 166.618 85.3696C166.51 85.5376 166.356 85.6716 166.156 85.7716C165.956 85.8716 165.718 85.9216 165.442 85.9216ZM167.555 85.8496V81.9136H168.677C168.973 81.9136 169.231 81.9496 169.451 82.0216C169.671 82.0936 169.843 82.2156 169.967 82.3876C170.091 82.5556 170.153 82.7836 170.153 83.0716C170.153 83.4836 170.019 83.7896 169.751 83.9896C169.483 84.1896 169.133 84.2896 168.701 84.2896H168.053V85.8496H167.555ZM168.053 83.8816H168.641C168.985 83.8816 169.239 83.8176 169.403 83.6896C169.571 83.5576 169.655 83.3516 169.655 83.0716C169.655 82.7876 169.567 82.5916 169.391 82.4836C169.219 82.3716 168.961 82.3156 168.617 82.3156H168.053V83.8816ZM170.953 85.8496V81.9136H171.451V85.8496H170.953ZM165.794 93.9216C165.466 93.9216 165.172 93.8416 164.912 93.6816C164.656 93.5176 164.452 93.2836 164.3 92.9796C164.152 92.6756 164.078 92.3096 164.078 91.8816C164.078 91.4576 164.154 91.0936 164.306 90.7896C164.458 90.4856 164.666 90.2516 164.93 90.0876C165.194 89.9236 165.492 89.8416 165.824 89.8416C166.064 89.8416 166.276 89.8916 166.46 89.9916C166.644 90.0876 166.792 90.1996 166.904 90.3276L166.634 90.6516C166.53 90.5396 166.412 90.4496 166.28 90.3816C166.148 90.3136 165.998 90.2796 165.83 90.2796C165.582 90.2796 165.364 90.3456 165.176 90.4776C164.992 90.6056 164.848 90.7876 164.744 91.0236C164.644 91.2596 164.594 91.5416 164.594 91.8696C164.594 92.1976 164.644 92.4836 164.744 92.7276C164.844 92.9676 164.984 93.1536 165.164 93.2856C165.348 93.4176 165.564 93.4836 165.812 93.4836C166 93.4836 166.168 93.4436 166.316 93.3636C166.464 93.2836 166.6 93.1756 166.724 93.0396L167 93.3516C166.844 93.5316 166.668 93.6716 166.472 93.7716C166.276 93.8716 166.05 93.9216 165.794 93.9216ZM168.679 93.9216C168.403 93.9216 168.147 93.8696 167.911 93.7656C167.675 93.6576 167.471 93.5156 167.299 93.3396L167.599 92.9916C167.739 93.1396 167.903 93.2596 168.091 93.3516C168.283 93.4396 168.481 93.4836 168.685 93.4836C168.945 93.4836 169.147 93.4256 169.291 93.3096C169.435 93.1896 169.507 93.0336 169.507 92.8416C169.507 92.7056 169.477 92.5976 169.417 92.5176C169.361 92.4376 169.283 92.3696 169.183 92.3136C169.087 92.2576 168.977 92.2016 168.853 92.1456L168.289 91.8996C168.165 91.8476 168.041 91.7796 167.917 91.6956C167.797 91.6116 167.695 91.5036 167.611 91.3716C167.531 91.2396 167.491 91.0776 167.491 90.8856C167.491 90.6856 167.543 90.5076 167.647 90.3516C167.755 90.1916 167.903 90.0676 168.091 89.9796C168.279 89.8876 168.491 89.8416 168.727 89.8416C168.963 89.8416 169.181 89.8876 169.381 89.9796C169.581 90.0676 169.751 90.1836 169.891 90.3276L169.621 90.6516C169.501 90.5356 169.367 90.4456 169.219 90.3816C169.075 90.3136 168.911 90.2796 168.727 90.2796C168.507 90.2796 168.329 90.3316 168.193 90.4356C168.061 90.5396 167.995 90.6796 167.995 90.8556C167.995 90.9796 168.027 91.0836 168.091 91.1676C168.159 91.2476 168.243 91.3136 168.343 91.3656C168.443 91.4176 168.545 91.4656 168.649 91.5096L169.207 91.7496C169.359 91.8136 169.495 91.8916 169.615 91.9836C169.739 92.0716 169.837 92.1816 169.909 92.3136C169.981 92.4416 170.017 92.6036 170.017 92.7996C170.017 93.0076 169.963 93.1976 169.855 93.3696C169.747 93.5376 169.593 93.6716 169.393 93.7716C169.193 93.8716 168.955 93.9216 168.679 93.9216ZM170.726 93.8496V93.4416H171.602V90.6216H170.906V90.3036C171.082 90.2716 171.234 90.2336 171.362 90.1896C171.494 90.1416 171.612 90.0856 171.716 90.0216H172.094V93.4416H172.886V93.8496H170.726Z" fill="white"/>
<path d="M224.245 89.9216C223.901 89.9216 223.595 89.8416 223.327 89.6816C223.059 89.5176 222.849 89.2836 222.697 88.9796C222.545 88.6756 222.469 88.3096 222.469 87.8816C222.469 87.4576 222.547 87.0936 222.703 86.7896C222.859 86.4856 223.073 86.2516 223.345 86.0876C223.617 85.9236 223.927 85.8416 224.275 85.8416C224.547 85.8416 224.775 85.8936 224.959 85.9976C225.147 86.0976 225.297 86.2076 225.409 86.3276L225.133 86.6516C225.033 86.5476 224.917 86.4596 224.785 86.3876C224.653 86.3156 224.487 86.2796 224.287 86.2796C224.023 86.2796 223.793 86.3456 223.597 86.4776C223.401 86.6056 223.249 86.7876 223.141 87.0236C223.037 87.2596 222.985 87.5416 222.985 87.8696C222.985 88.3656 223.097 88.7596 223.321 89.0516C223.549 89.3396 223.873 89.4836 224.293 89.4836C224.433 89.4836 224.567 89.4636 224.695 89.4236C224.823 89.3796 224.925 89.3216 225.001 89.2496V88.2236H224.167V87.8096H225.457V89.4656C225.333 89.5976 225.165 89.7076 224.953 89.7956C224.745 89.8796 224.509 89.9216 224.245 89.9216ZM226.922 89.8496C226.946 89.3696 226.996 88.9396 227.072 88.5596C227.152 88.1756 227.268 87.8156 227.42 87.4796C227.576 87.1396 227.78 86.7956 228.032 86.4476H226.124V86.0216H228.59V86.3276C228.362 86.6156 228.176 86.8936 228.032 87.1616C227.888 87.4256 227.776 87.6936 227.696 87.9656C227.616 88.2336 227.556 88.5216 227.516 88.8296C227.476 89.1376 227.448 89.4776 227.432 89.8496H226.922Z" fill="white"/>
<path d="M252.245 89.9216C251.901 89.9216 251.595 89.8416 251.327 89.6816C251.059 89.5176 250.849 89.2836 250.697 88.9796C250.545 88.6756 250.469 88.3096 250.469 87.8816C250.469 87.4576 250.547 87.0936 250.703 86.7896C250.859 86.4856 251.073 86.2516 251.345 86.0876C251.617 85.9236 251.927 85.8416 252.275 85.8416C252.547 85.8416 252.775 85.8936 252.959 85.9976C253.147 86.0976 253.297 86.2076 253.409 86.3276L253.133 86.6516C253.033 86.5476 252.917 86.4596 252.785 86.3876C252.653 86.3156 252.487 86.2796 252.287 86.2796C252.023 86.2796 251.793 86.3456 251.597 86.4776C251.401 86.6056 251.249 86.7876 251.141 87.0236C251.037 87.2596 250.985 87.5416 250.985 87.8696C250.985 88.3656 251.097 88.7596 251.321 89.0516C251.549 89.3396 251.873 89.4836 252.293 89.4836C252.433 89.4836 252.567 89.4636 252.695 89.4236C252.823 89.3796 252.925 89.3216 253.001 89.2496V88.2236H252.167V87.8096H253.457V89.4656C253.333 89.5976 253.165 89.7076 252.953 89.7956C252.745 89.8796 252.509 89.9216 252.245 89.9216ZM255.264 89.9216C254.96 89.9216 254.708 89.8676 254.508 89.7596C254.308 89.6516 254.142 89.5316 254.01 89.3996L254.25 89.0756C254.366 89.1876 254.5 89.2896 254.652 89.3816C254.804 89.4696 254.992 89.5136 255.216 89.5136C255.452 89.5136 255.65 89.4356 255.81 89.2796C255.974 89.1196 256.056 88.9056 256.056 88.6376C256.056 88.3736 255.982 88.1676 255.834 88.0196C255.686 87.8716 255.488 87.7976 255.24 87.7976C255.108 87.7976 254.994 87.8176 254.898 87.8576C254.806 87.8976 254.702 87.9556 254.586 88.0316L254.322 87.8636L254.448 86.0216H256.362V86.4476H254.88L254.778 87.5816C254.87 87.5336 254.962 87.4956 255.054 87.4676C255.146 87.4396 255.25 87.4256 255.366 87.4256C255.586 87.4256 255.784 87.4696 255.96 87.5576C256.14 87.6416 256.284 87.7716 256.392 87.9476C256.5 88.1236 256.554 88.3496 256.554 88.6256C256.554 88.9016 256.492 89.1376 256.368 89.3336C256.248 89.5256 256.09 89.6716 255.894 89.7716C255.698 89.8716 255.488 89.9216 255.264 89.9216Z" fill="white"/>
<path d="M194.268 85.9216C193.964 85.9216 193.712 85.8676 193.512 85.7596C193.312 85.6516 193.146 85.5316 193.014 85.3996L193.254 85.0756C193.37 85.1876 193.504 85.2896 193.656 85.3816C193.808 85.4696 193.996 85.5136 194.22 85.5136C194.456 85.5136 194.654 85.4356 194.814 85.2796C194.978 85.1196 195.06 84.9056 195.06 84.6376C195.06 84.3736 194.986 84.1676 194.838 84.0196C194.69 83.8716 194.492 83.7976 194.244 83.7976C194.112 83.7976 193.998 83.8176 193.902 83.8576C193.81 83.8976 193.706 83.9556 193.59 84.0316L193.326 83.8636L193.452 82.0216H195.366V82.4476H193.884L193.782 83.5816C193.874 83.5336 193.966 83.4956 194.058 83.4676C194.15 83.4396 194.254 83.4256 194.37 83.4256C194.59 83.4256 194.788 83.4696 194.964 83.5576C195.144 83.6416 195.288 83.7716 195.396 83.9476C195.504 84.1236 195.558 84.3496 195.558 84.6256C195.558 84.9016 195.496 85.1376 195.372 85.3336C195.252 85.5256 195.094 85.6716 194.898 85.7716C194.702 85.8716 194.492 85.9216 194.268 85.9216ZM197.107 85.8496L195.847 81.9136H196.381L197.011 84.0376C197.083 84.2696 197.145 84.4876 197.197 84.6916C197.253 84.8916 197.319 85.1076 197.395 85.3396H197.419C197.491 85.1076 197.555 84.8916 197.611 84.6916C197.667 84.4876 197.729 84.2696 197.797 84.0376L198.427 81.9136H198.937L197.689 85.8496H197.107ZM192.125 94.7616V89.6016H193.199V89.8836H192.497V94.4796H193.199V94.7616H192.125ZM193.617 93.8496V93.5556C194.001 93.1716 194.327 92.8356 194.595 92.5476C194.863 92.2556 195.067 91.9936 195.207 91.7616C195.347 91.5256 195.417 91.3056 195.417 91.1016C195.417 90.8816 195.357 90.7016 195.237 90.5616C195.117 90.4216 194.935 90.3516 194.691 90.3516C194.531 90.3516 194.383 90.3976 194.247 90.4896C194.111 90.5776 193.987 90.6856 193.875 90.8136L193.593 90.5316C193.753 90.3556 193.923 90.2156 194.103 90.1116C194.287 90.0036 194.503 89.9496 194.751 89.9496C195.107 89.9496 195.387 90.0536 195.591 90.2616C195.795 90.4656 195.897 90.7376 195.897 91.0776C195.897 91.3176 195.829 91.5616 195.693 91.8096C195.561 92.0536 195.377 92.3116 195.141 92.5836C194.909 92.8516 194.641 93.1436 194.337 93.4596C194.441 93.4516 194.549 93.4436 194.661 93.4356C194.773 93.4276 194.879 93.4236 194.979 93.4236H196.089V93.8496H193.617ZM197.577 91.6476L197.391 92.2476H198.573L198.387 91.6476C198.315 91.4276 198.247 91.2096 198.183 90.9936C198.119 90.7736 198.055 90.5496 197.991 90.3216H197.967C197.907 90.5496 197.845 90.7736 197.781 90.9936C197.717 91.2096 197.649 91.4276 197.577 91.6476ZM196.377 93.8496L197.709 89.9136H198.273L199.605 93.8496H199.071L198.699 92.6496H197.265L196.887 93.8496H196.377ZM199.809 94.7616V94.4796H200.505V89.8836H199.809V89.6016H200.877V94.7616H199.809Z" fill="white"/>
<path d="M280.245 89.9216C279.901 89.9216 279.595 89.8416 279.327 89.6816C279.059 89.5176 278.849 89.2836 278.697 88.9796C278.545 88.6756 278.469 88.3096 278.469 87.8816C278.469 87.4576 278.547 87.0936 278.703 86.7896C278.859 86.4856 279.073 86.2516 279.345 86.0876C279.617 85.9236 279.927 85.8416 280.275 85.8416C280.547 85.8416 280.775 85.8936 280.959 85.9976C281.147 86.0976 281.297 86.2076 281.409 86.3276L281.133 86.6516C281.033 86.5476 280.917 86.4596 280.785 86.3876C280.653 86.3156 280.487 86.2796 280.287 86.2796C280.023 86.2796 279.793 86.3456 279.597 86.4776C279.401 86.6056 279.249 86.7876 279.141 87.0236C279.037 87.2596 278.985 87.5416 278.985 87.8696C278.985 88.3656 279.097 88.7596 279.321 89.0516C279.549 89.3396 279.873 89.4836 280.293 89.4836C280.433 89.4836 280.567 89.4636 280.695 89.4236C280.823 89.3796 280.925 89.3216 281.001 89.2496V88.2236H280.167V87.8096H281.457V89.4656C281.333 89.5976 281.165 89.7076 280.953 89.7956C280.745 89.8796 280.509 89.9216 280.245 89.9216ZM283.276 89.9216C282.972 89.9216 282.718 89.8676 282.514 89.7596C282.31 89.6476 282.144 89.5216 282.016 89.3816L282.268 89.0576C282.384 89.1776 282.52 89.2836 282.676 89.3756C282.832 89.4676 283.022 89.5136 283.246 89.5136C283.478 89.5136 283.668 89.4496 283.816 89.3216C283.964 89.1936 284.038 89.0236 284.038 88.8116C284.038 88.6596 283.998 88.5276 283.918 88.4156C283.842 88.2996 283.714 88.2096 283.534 88.1456C283.358 88.0816 283.118 88.0496 282.814 88.0496V87.6716C283.086 87.6716 283.3 87.6396 283.456 87.5756C283.616 87.5116 283.73 87.4256 283.798 87.3176C283.866 87.2096 283.9 87.0896 283.9 86.9576C283.9 86.7696 283.84 86.6216 283.72 86.5136C283.604 86.4056 283.444 86.3516 283.24 86.3516C283.08 86.3516 282.932 86.3876 282.796 86.4596C282.664 86.5316 282.54 86.6256 282.424 86.7416L282.16 86.4296C282.308 86.2896 282.472 86.1756 282.652 86.0876C282.832 85.9956 283.034 85.9496 283.258 85.9496C283.59 85.9496 283.864 86.0356 284.08 86.2076C284.296 86.3756 284.404 86.6136 284.404 86.9216C284.404 87.1536 284.34 87.3436 284.212 87.4916C284.084 87.6396 283.916 87.7536 283.708 87.8336V87.8576C283.94 87.9096 284.136 88.0196 284.296 88.1876C284.456 88.3516 284.536 88.5656 284.536 88.8296C284.536 89.0536 284.48 89.2476 284.368 89.4116C284.256 89.5756 284.104 89.7016 283.912 89.7896C283.724 89.8776 283.512 89.9216 283.276 89.9216Z" fill="white"/>
<path d="M308.245 89.9216C307.901 89.9216 307.595 89.8416 307.327 89.6816C307.059 89.5176 306.849 89.2836 306.697 88.9796C306.545 88.6756 306.469 88.3096 306.469 87.8816C306.469 87.4576 306.547 87.0936 306.703 86.7896C306.859 86.4856 307.073 86.2516 307.345 86.0876C307.617 85.9236 307.927 85.8416 308.275 85.8416C308.547 85.8416 308.775 85.8936 308.959 85.9976C309.147 86.0976 309.297 86.2076 309.409 86.3276L309.133 86.6516C309.033 86.5476 308.917 86.4596 308.785 86.3876C308.653 86.3156 308.487 86.2796 308.287 86.2796C308.023 86.2796 307.793 86.3456 307.597 86.4776C307.401 86.6056 307.249 86.7876 307.141 87.0236C307.037 87.2596 306.985 87.5416 306.985 87.8696C306.985 88.3656 307.097 88.7596 307.321 89.0516C307.549 89.3396 307.873 89.4836 308.293 89.4836C308.433 89.4836 308.567 89.4636 308.695 89.4236C308.823 89.3796 308.925 89.3216 309.001 89.2496V88.2236H308.167V87.8096H309.457V89.4656C309.333 89.5976 309.165 89.7076 308.953 89.7956C308.745 89.8796 308.509 89.9216 308.245 89.9216ZM310.334 89.8496V89.4416H311.21V86.6216H310.514V86.3036C310.69 86.2716 310.842 86.2336 310.97 86.1896C311.102 86.1416 311.22 86.0856 311.324 86.0216H311.702V89.4416H312.494V89.8496H310.334Z" fill="white"/>
<path d="M363.442 85.9216C363.166 85.9216 362.91 85.8696 362.674 85.7656C362.438 85.6576 362.234 85.5156 362.062 85.3396L362.362 84.9916C362.502 85.1396 362.666 85.2596 362.854 85.3516C363.046 85.4396 363.244 85.4836 363.448 85.4836C363.708 85.4836 363.91 85.4256 364.054 85.3096C364.198 85.1896 364.27 85.0336 364.27 84.8416C364.27 84.7056 364.24 84.5976 364.18 84.5176C364.124 84.4376 364.046 84.3696 363.946 84.3136C363.85 84.2576 363.74 84.2016 363.616 84.1456L363.052 83.8996C362.928 83.8476 362.804 83.7796 362.68 83.6956C362.56 83.6116 362.458 83.5036 362.374 83.3716C362.294 83.2396 362.254 83.0776 362.254 82.8856C362.254 82.6856 362.306 82.5076 362.41 82.3516C362.518 82.1916 362.666 82.0676 362.854 81.9796C363.042 81.8876 363.254 81.8416 363.49 81.8416C363.726 81.8416 363.944 81.8876 364.144 81.9796C364.344 82.0676 364.514 82.1836 364.654 82.3276L364.384 82.6516C364.264 82.5356 364.13 82.4456 363.982 82.3816C363.838 82.3136 363.674 82.2796 363.49 82.2796C363.27 82.2796 363.092 82.3316 362.956 82.4356C362.824 82.5396 362.758 82.6796 362.758 82.8556C362.758 82.9796 362.79 83.0836 362.854 83.1676C362.922 83.2476 363.006 83.3136 363.106 83.3656C363.206 83.4176 363.308 83.4656 363.412 83.5096L363.97 83.7496C364.122 83.8136 364.258 83.8916 364.378 83.9836C364.502 84.0716 364.6 84.1816 364.672 84.3136C364.744 84.4416 364.78 84.6036 364.78 84.7996C364.78 85.0076 364.726 85.1976 364.618 85.3696C364.51 85.5376 364.356 85.6716 364.156 85.7716C363.956 85.8716 363.718 85.9216 363.442 85.9216ZM365.555 85.8496V81.9136H366.677C366.973 81.9136 367.231 81.9496 367.451 82.0216C367.671 82.0936 367.843 82.2156 367.967 82.3876C368.091 82.5556 368.153 82.7836 368.153 83.0716C368.153 83.4836 368.019 83.7896 367.751 83.9896C367.483 84.1896 367.133 84.2896 366.701 84.2896H366.053V85.8496H365.555ZM366.053 83.8816H366.641C366.985 83.8816 367.239 83.8176 367.403 83.6896C367.571 83.5576 367.655 83.3516 367.655 83.0716C367.655 82.7876 367.567 82.5916 367.391 82.4836C367.219 82.3716 366.961 82.3156 366.617 82.3156H366.053V83.8816ZM368.953 85.8496V81.9136H369.451V85.8496H368.953ZM360.478 93.8496V89.9136H361.078L361.834 92.0136C361.882 92.1496 361.928 92.2876 361.972 92.4276C362.02 92.5636 362.068 92.6996 362.116 92.8356H362.14C362.188 92.6996 362.232 92.5636 362.272 92.4276C362.316 92.2876 362.362 92.1496 362.41 92.0136L363.154 89.9136H363.76V93.8496H363.292V91.6836C363.292 91.5076 363.3 91.3136 363.316 91.1016C363.332 90.8856 363.346 90.6916 363.358 90.5196H363.334L363.021 91.4136L362.278 93.4536H361.948L361.204 91.4136L360.892 90.5196H360.868C360.88 90.6916 360.892 90.8856 360.904 91.1016C360.92 91.3136 360.928 91.5076 360.928 91.6836V93.8496H360.478ZM366.289 93.9216C365.961 93.9216 365.669 93.8376 365.413 93.6696C365.161 93.5016 364.963 93.2636 364.819 92.9556C364.679 92.6476 364.609 92.2836 364.609 91.8636C364.609 91.4436 364.679 91.0836 364.819 90.7836C364.963 90.4796 365.161 90.2476 365.413 90.0876C365.669 89.9236 365.961 89.8416 366.289 89.8416C366.621 89.8416 366.913 89.9236 367.165 90.0876C367.417 90.2476 367.615 90.4796 367.759 90.7836C367.903 91.0836 367.975 91.4436 367.975 91.8636C367.975 92.2836 367.903 92.6476 367.759 92.9556C367.615 93.2636 367.417 93.5016 367.165 93.6696C366.913 93.8376 366.621 93.9216 366.289 93.9216ZM366.289 93.4836C366.525 93.4836 366.729 93.4176 366.901 93.2856C367.077 93.1496 367.213 92.9616 367.309 92.7216C367.405 92.4776 367.453 92.1916 367.453 91.8636C367.453 91.3756 367.347 90.9896 367.135 90.7056C366.923 90.4216 366.641 90.2796 366.289 90.2796C365.937 90.2796 365.655 90.4216 365.443 90.7056C365.231 90.9896 365.125 91.3756 365.125 91.8636C365.125 92.1916 365.173 92.4776 365.269 92.7216C365.365 92.9616 365.501 93.1496 365.677 93.2856C365.853 93.4176 366.057 93.4836 366.289 93.4836ZM369.913 93.9216C369.637 93.9216 369.381 93.8696 369.145 93.7656C368.909 93.6576 368.705 93.5156 368.533 93.3396L368.833 92.9916C368.973 93.1396 369.137 93.2596 369.325 93.3516C369.517 93.4396 369.715 93.4836 369.919 93.4836C370.179 93.4836 370.381 93.4256 370.525 93.3096C370.669 93.1896 370.741 93.0336 370.741 92.8416C370.741 92.7056 370.711 92.5976 370.651 92.5176C370.595 92.4376 370.517 92.3696 370.417 92.3136C370.321 92.2576 370.211 92.2016 370.087 92.1456L369.523 91.8996C369.399 91.8476 369.275 91.7796 369.151 91.6956C369.031 91.6116 368.929 91.5036 368.845 91.3716C368.765 91.2396 368.725 91.0776 368.725 90.8856C368.725 90.6856 368.777 90.5076 368.881 90.3516C368.989 90.1916 369.137 90.0676 369.325 89.9796C369.513 89.8876 369.725 89.8416 369.961 89.8416C370.197 89.8416 370.415 89.8876 370.615 89.9796C370.815 90.0676 370.985 90.1836 371.125 90.3276L370.855 90.6516C370.735 90.5356 370.601 90.4456 370.453 90.3816C370.309 90.3136 370.145 90.2796 369.961 90.2796C369.741 90.2796 369.563 90.3316 369.427 90.4356C369.295 90.5396 369.229 90.6796 369.229 90.8556C369.229 90.9796 369.261 91.0836 369.325 91.1676C369.393 91.2476 369.477 91.3136 369.577 91.3656C369.677 91.4176 369.779 91.4656 369.883 91.5096L370.441 91.7496C370.593 91.8136 370.729 91.8916 370.849 91.9836C370.973 92.0716 371.071 92.1816 371.143 92.3136C371.215 92.4416 371.251 92.6036 371.251 92.7996C371.251 93.0076 371.197 93.1976 371.089 93.3696C370.981 93.5376 370.827 93.6716 370.627 93.7716C370.427 93.8716 370.189 93.9216 369.913 93.9216ZM372.026 93.8496V89.9136H372.524V93.8496H372.026Z" fill="white"/>
<path d="M390.948 89.9216C390.604 89.9216 390.298 89.8416 390.03 89.6816C389.762 89.5176 389.552 89.2836 389.4 88.9796C389.248 88.6756 389.172 88.3096 389.172 87.8816C389.172 87.4576 389.25 87.0936 389.406 86.7896C389.562 86.4856 389.776 86.2516 390.048 86.0876C390.32 85.9236 390.63 85.8416 390.978 85.8416C391.25 85.8416 391.478 85.8936 391.662 85.9976C391.85 86.0976 392 86.2076 392.112 86.3276L391.836 86.6516C391.736 86.5476 391.62 86.4596 391.488 86.3876C391.356 86.3156 391.19 86.2796 390.99 86.2796C390.726 86.2796 390.496 86.3456 390.3 86.4776C390.104 86.6056 389.952 86.7876 389.844 87.0236C389.74 87.2596 389.688 87.5416 389.688 87.8696C389.688 88.3656 389.8 88.7596 390.024 89.0516C390.252 89.3396 390.576 89.4836 390.996 89.4836C391.136 89.4836 391.27 89.4636 391.398 89.4236C391.526 89.3796 391.628 89.3216 391.704 89.2496V88.2236H390.87V87.8096H392.16V89.4656C392.036 89.5976 391.868 89.7076 391.656 89.7956C391.448 89.8796 391.212 89.9216 390.948 89.9216ZM393.103 89.8496V85.9136H393.619L395.041 88.3856L395.467 89.2016H395.491C395.479 89.0016 395.465 88.7956 395.449 88.5836C395.437 88.3676 395.431 88.1556 395.431 87.9476V85.9136H395.905V89.8496H395.389L393.961 87.3716L393.535 86.5616H393.511C393.527 86.7576 393.541 86.9596 393.553 87.1676C393.569 87.3756 393.577 87.5836 393.577 87.7916V89.8496H393.103ZM396.988 89.8496V85.9136H397.972C398.58 85.9136 399.042 86.0836 399.358 86.4236C399.674 86.7596 399.832 87.2396 399.832 87.8636C399.832 88.4916 399.674 88.9796 399.358 89.3276C399.046 89.6756 398.592 89.8496 397.996 89.8496H396.988ZM397.486 89.4416H397.936C398.396 89.4416 398.74 89.3036 398.968 89.0276C399.2 88.7476 399.316 88.3596 399.316 87.8636C399.316 87.3676 399.2 86.9876 398.968 86.7236C398.74 86.4556 398.396 86.3216 397.936 86.3216H397.486V89.4416Z" fill="white"/>
</svg>
