<svg width="200" viewBox="0 0 118 138" fill="none" xmlns="http://www.w3.org/2000/svg">
<rect x="1" y="1" width="116" height="136" rx="3" fill="white" stroke="#474448"/>
<path d="M36 45.5C36 40.8056 39.8056 37 44.5 37C49.1944 37 53 40.8056 53 45.5V67.69C53 67.8612 52.8612 68 52.69 68H36.31C36.1388 68 36 67.8612 36 67.69V45.5Z" fill="#68B455"/>
<path d="M64 45.5C64 40.8056 67.8056 37 72.5 37C77.1944 37 81 40.8056 81 45.5V67.69C81 67.8612 80.8612 68 80.69 68H64.31C64.1388 68 64 67.8612 64 67.69V45.5Z" fill="#4483E1"/>
<path d="M93 45.5C93 40.8056 96.8056 37 101.5 37C106.194 37 110 40.8056 110 45.5V67.69C110 67.8612 109.861 68 109.69 68H93.31C93.1388 68 93 67.8612 93 67.69V45.5Z" fill="#4483E1"/>
<path d="M8 45.5C8 40.8056 11.8056 37 16.5 37C21.1944 37 25 40.8056 25 45.5V67.69C25 67.8612 24.8612 68 24.69 68H8.31C8.13879 68 8 67.8612 8 67.69V45.5Z" fill="#F17979"/>
<path d="M25 113.5C25 118.194 21.1944 122 16.5 122C11.8056 122 8 118.194 8 113.5L8 91.31C8 91.1388 8.13879 91 8.31 91L24.69 91C24.8612 91 25 91.1388 25 91.31L25 113.5Z" fill="#474448"/>
<path d="M53 113.5C53 118.194 49.1944 122 44.5 122C39.8056 122 36 118.194 36 113.5L36 91.31C36 91.1388 36.1388 91 36.31 91L52.69 91C52.8612 91 53 91.1388 53 91.31L53 113.5Z" fill="#68B455"/>
<path d="M81 113.5C81 118.194 77.1944 122 72.5 122C67.8056 122 64 118.194 64 113.5L64 91.31C64 91.1388 64.1388 91 64.31 91L80.69 91C80.8612 91 81 91.1388 81 91.31L81 113.5Z" fill="#4483E1"/>
<path d="M110 113.5C110 118.194 106.194 122 101.5 122C96.8056 122 93 118.194 93 113.5L93 91.31C93 91.1388 93.1388 91 93.31 91L109.69 91C109.861 91 110 91.1388 110 91.31L110 113.5Z" fill="#4483E1"/>
<path d="M22.732 23.168C22.084 23.168 21.52 23.072 21.04 22.88C20.568 22.68 20.2 22.404 19.936 22.052C19.68 21.692 19.552 21.272 19.552 20.792V20.66C19.552 20.244 19.64 19.9 19.816 19.628C19.992 19.356 20.204 19.148 20.452 19.004C20.708 18.852 20.944 18.756 21.16 18.716V18.56C20.944 18.496 20.72 18.392 20.488 18.248C20.264 18.104 20.076 17.908 19.924 17.66C19.78 17.412 19.708 17.108 19.708 16.748V16.616C19.708 16.16 19.836 15.772 20.092 15.452C20.356 15.124 20.716 14.872 21.172 14.696C21.628 14.52 22.148 14.432 22.732 14.432C23.324 14.432 23.844 14.52 24.292 14.696C24.748 14.872 25.104 15.124 25.36 15.452C25.624 15.772 25.756 16.16 25.756 16.616V16.748C25.756 17.108 25.684 17.412 25.54 17.66C25.396 17.908 25.212 18.104 24.988 18.248C24.764 18.392 24.54 18.496 24.316 18.56V18.716C24.54 18.756 24.776 18.852 25.024 19.004C25.272 19.148 25.48 19.356 25.648 19.628C25.824 19.9 25.912 20.244 25.912 20.66V20.792C25.912 21.272 25.784 21.692 25.528 22.052C25.272 22.404 24.904 22.68 24.424 22.88C23.952 23.072 23.388 23.168 22.732 23.168ZM22.732 22.292C23.412 22.292 23.948 22.16 24.34 21.896C24.74 21.632 24.94 21.248 24.94 20.744V20.648C24.94 20.144 24.744 19.76 24.352 19.496C23.96 19.232 23.42 19.1 22.732 19.1C22.052 19.1 21.516 19.232 21.124 19.496C20.732 19.76 20.536 20.144 20.536 20.648V20.744C20.536 21.248 20.732 21.632 21.124 21.896C21.524 22.16 22.06 22.292 22.732 22.292ZM22.732 18.224C23.372 18.224 23.872 18.104 24.232 17.864C24.6 17.616 24.784 17.268 24.784 16.82V16.724C24.784 16.268 24.6 15.92 24.232 15.68C23.864 15.432 23.364 15.308 22.732 15.308C22.1 15.308 21.6 15.432 21.232 15.68C20.864 15.92 20.68 16.268 20.68 16.724V16.82C20.68 17.268 20.864 17.616 21.232 17.864C21.6 18.104 22.1 18.224 22.732 18.224ZM27.4246 20.348V19.472H30.9766V20.348H27.4246ZM32.9335 25.4V17.132H33.8575V18.104H34.0255C34.1775 17.808 34.4215 17.544 34.7575 17.312C35.1015 17.08 35.5775 16.964 36.1855 16.964C36.6895 16.964 37.1495 17.088 37.5655 17.336C37.9895 17.576 38.3255 17.92 38.5735 18.368C38.8295 18.816 38.9575 19.356 38.9575 19.988V20.144C38.9575 20.768 38.8335 21.308 38.5855 21.764C38.3375 22.22 38.0015 22.568 37.5775 22.808C37.1615 23.048 36.6975 23.168 36.1855 23.168C35.7775 23.168 35.4295 23.112 35.1415 23C34.8615 22.896 34.6335 22.76 34.4575 22.592C34.2815 22.424 34.1455 22.252 34.0495 22.076H33.8815V25.4H32.9335ZM35.9335 22.328C36.5415 22.328 37.0335 22.136 37.4095 21.752C37.7935 21.36 37.9855 20.816 37.9855 20.12V20.012C37.9855 19.316 37.7935 18.776 37.4095 18.392C37.0335 18 36.5415 17.804 35.9335 17.804C35.3335 17.804 34.8375 18 34.4455 18.392C34.0615 18.776 33.8695 19.316 33.8695 20.012V20.12C33.8695 20.816 34.0615 21.36 34.4455 21.752C34.8375 22.136 35.3335 22.328 35.9335 22.328ZM40.6562 23V17.132H41.6042V23H40.6562ZM41.1362 16.22C40.9282 16.22 40.7522 16.152 40.6082 16.016C40.4722 15.88 40.4042 15.708 40.4042 15.5C40.4042 15.284 40.4722 15.108 40.6082 14.972C40.7522 14.836 40.9282 14.768 41.1362 14.768C41.3442 14.768 41.5162 14.836 41.6522 14.972C41.7882 15.108 41.8562 15.284 41.8562 15.5C41.8562 15.708 41.7882 15.88 41.6522 16.016C41.5162 16.152 41.3442 16.22 41.1362 16.22ZM43.5976 23V17.132H44.5216V18.128H44.6896C44.8176 17.848 45.0336 17.596 45.3376 17.372C45.6496 17.14 46.1056 17.024 46.7056 17.024C47.1456 17.024 47.5376 17.116 47.8816 17.3C48.2336 17.484 48.5136 17.756 48.7216 18.116C48.9296 18.476 49.0336 18.92 49.0336 19.448V23H48.0856V19.52C48.0856 18.936 47.9376 18.512 47.6416 18.248C47.3536 17.984 46.9616 17.852 46.4656 17.852C45.8976 17.852 45.4336 18.036 45.0736 18.404C44.7216 18.772 44.5456 19.32 44.5456 20.048V23H43.5976ZM53.679 23V22.124C53.679 21.524 53.783 21.044 53.991 20.684C54.207 20.324 54.503 20.036 54.879 19.82C55.263 19.596 55.719 19.404 56.247 19.244L56.907 19.04C57.267 18.928 57.583 18.792 57.855 18.632C58.127 18.464 58.339 18.256 58.491 18.008C58.643 17.752 58.719 17.44 58.719 17.072V17.024C58.719 16.496 58.535 16.08 58.167 15.776C57.799 15.464 57.327 15.308 56.751 15.308C56.143 15.308 55.647 15.472 55.263 15.8C54.879 16.12 54.687 16.608 54.687 17.264V17.432H53.727V17.276C53.727 16.668 53.859 16.152 54.123 15.728C54.387 15.304 54.747 14.984 55.203 14.768C55.659 14.544 56.175 14.432 56.751 14.432C57.327 14.432 57.835 14.54 58.275 14.756C58.723 14.972 59.071 15.272 59.319 15.656C59.567 16.04 59.691 16.488 59.691 17V17.108C59.691 17.652 59.583 18.104 59.367 18.464C59.151 18.816 58.851 19.104 58.467 19.328C58.091 19.552 57.647 19.744 57.135 19.904L56.487 20.108C56.079 20.236 55.739 20.372 55.467 20.516C55.203 20.652 55.003 20.828 54.867 21.044C54.731 21.26 54.663 21.552 54.663 21.92V22.124H59.619V23H53.679ZM61.7854 23.168C61.5534 23.168 61.3574 23.092 61.1974 22.94C61.0454 22.788 60.9694 22.592 60.9694 22.352C60.9694 22.112 61.0454 21.916 61.1974 21.764C61.3574 21.612 61.5534 21.536 61.7854 21.536C62.0254 21.536 62.2214 21.612 62.3734 21.764C62.5254 21.916 62.6014 22.112 62.6014 22.352C62.6014 22.592 62.5254 22.788 62.3734 22.94C62.2214 23.092 62.0254 23.168 61.7854 23.168ZM66.9326 23.168C66.3166 23.168 65.7846 23.052 65.3366 22.82C64.8886 22.58 64.5406 22.252 64.2926 21.836C64.0446 21.412 63.9206 20.924 63.9206 20.372V20.228H64.8926V20.336C64.8926 20.968 65.0766 21.452 65.4446 21.788C65.8126 22.124 66.3006 22.292 66.9086 22.292C67.5486 22.292 68.0486 22.112 68.4086 21.752C68.7686 21.392 68.9486 20.9 68.9486 20.276V20.168C68.9486 19.568 68.7726 19.092 68.4206 18.74C68.0766 18.38 67.6286 18.2 67.0766 18.2C66.7566 18.2 66.4926 18.252 66.2846 18.356C66.0766 18.452 65.9126 18.576 65.7926 18.728C65.6726 18.872 65.5726 19.012 65.4926 19.148H64.1726V14.6H69.6926V15.476H65.1446V18.38H65.3126C65.4006 18.22 65.5206 18.064 65.6726 17.912C65.8326 17.76 66.0446 17.632 66.3086 17.528C66.5726 17.424 66.9006 17.372 67.2926 17.372C67.7806 17.372 68.2206 17.484 68.6126 17.708C69.0126 17.932 69.3286 18.252 69.5606 18.668C69.8006 19.084 69.9206 19.58 69.9206 20.156V20.288C69.9206 20.856 69.8006 21.356 69.5606 21.788C69.3206 22.22 68.9766 22.56 68.5286 22.808C68.0806 23.048 67.5486 23.168 66.9326 23.168ZM75.2562 23V21.284H70.8762V20.132L74.4042 14.6H76.2282V20.408H77.6682V21.284H76.2282V23H75.2562ZM71.8482 20.408H75.2562V15.188H75.0882L71.8482 20.264V20.408ZM78.9882 23V17.132H79.9122V17.864H80.0802C80.1922 17.656 80.3762 17.464 80.6322 17.288C80.8882 17.112 81.2482 17.024 81.7122 17.024C82.1682 17.024 82.5362 17.124 82.8162 17.324C83.1042 17.524 83.3122 17.768 83.4402 18.056H83.6082C83.7442 17.768 83.9482 17.524 84.2202 17.324C84.5002 17.124 84.8882 17.024 85.3842 17.024C85.7762 17.024 86.1202 17.104 86.4162 17.264C86.7122 17.424 86.9442 17.656 87.1122 17.96C87.2882 18.256 87.3762 18.612 87.3762 19.028V23H86.4282V19.112C86.4282 18.72 86.3122 18.412 86.0802 18.188C85.8562 17.956 85.5402 17.84 85.1322 17.84C84.7002 17.84 84.3442 17.98 84.0642 18.26C83.7922 18.54 83.6562 18.944 83.6562 19.472V23H82.7082V19.112C82.7082 18.72 82.5922 18.412 82.3602 18.188C82.1362 17.956 81.8202 17.84 81.4122 17.84C80.9802 17.84 80.6242 17.98 80.3442 18.26C80.0722 18.54 79.9362 18.944 79.9362 19.472V23H78.9882ZM89.3124 23V17.132H90.2364V17.864H90.4044C90.5164 17.656 90.7004 17.464 90.9564 17.288C91.2124 17.112 91.5724 17.024 92.0364 17.024C92.4924 17.024 92.8604 17.124 93.1404 17.324C93.4284 17.524 93.6364 17.768 93.7644 18.056H93.9324C94.0684 17.768 94.2724 17.524 94.5444 17.324C94.8244 17.124 95.2124 17.024 95.7084 17.024C96.1004 17.024 96.4444 17.104 96.7404 17.264C97.0364 17.424 97.2684 17.656 97.4364 17.96C97.6124 18.256 97.7004 18.612 97.7004 19.028V23H96.7524V19.112C96.7524 18.72 96.6364 18.412 96.4044 18.188C96.1804 17.956 95.8644 17.84 95.4564 17.84C95.0244 17.84 94.6684 17.98 94.3884 18.26C94.1164 18.54 93.9804 18.944 93.9804 19.472V23H93.0324V19.112C93.0324 18.72 92.9164 18.412 92.6844 18.188C92.4604 17.956 92.1444 17.84 91.7364 17.84C91.3044 17.84 90.9484 17.98 90.6684 18.26C90.3964 18.54 90.2604 18.944 90.2604 19.472V23H89.3124Z" fill="black"/>
<circle cx="16.5" cy="66.5" r="8" fill="white" stroke="#F17979"/>
<circle cx="16.5" cy="90.5" r="8" fill="white" stroke="#474448"/>
<circle cx="44.5" cy="66.5" r="8" fill="white" stroke="#68B455"/>
<circle cx="44.5" cy="90.5" r="8" fill="white" stroke="#68B455"/>
<circle cx="72.5" cy="66.5" r="8" fill="white" stroke="#4483E1"/>
<circle cx="72.5" cy="90.5" r="8" fill="white" stroke="#4483E1"/>
<circle cx="101.5" cy="66.5" r="8" fill="white" stroke="#4483E1"/>
<circle cx="101.5" cy="90.5" r="8" fill="white" stroke="#4483E1"/>
<path d="M41.0812 46.072C40.8052 46.072 40.5492 46.02 40.3132 45.916C40.0772 45.808 39.8732 45.666 39.7012 45.49L40.0012 45.142C40.1412 45.29 40.3052 45.41 40.4932 45.502C40.6852 45.59 40.8832 45.634 41.0872 45.634C41.3472 45.634 41.5492 45.576 41.6932 45.46C41.8372 45.34 41.9092 45.184 41.9092 44.992C41.9092 44.856 41.8792 44.748 41.8192 44.668C41.7632 44.588 41.6852 44.52 41.5852 44.464C41.4892 44.408 41.3792 44.352 41.2552 44.296L40.6912 44.05C40.5672 43.998 40.4432 43.93 40.3192 43.846C40.1992 43.762 40.0972 43.654 40.0132 43.522C39.9332 43.39 39.8932 43.228 39.8932 43.036C39.8932 42.836 39.9452 42.658 40.0492 42.502C40.1572 42.342 40.3052 42.218 40.4932 42.13C40.6812 42.038 40.8932 41.992 41.1292 41.992C41.3652 41.992 41.5832 42.038 41.7832 42.13C41.9832 42.218 42.1532 42.334 42.2932 42.478L42.0232 42.802C41.9032 42.686 41.7692 42.596 41.6212 42.532C41.4772 42.464 41.3132 42.43 41.1292 42.43C40.9092 42.43 40.7312 42.482 40.5952 42.586C40.4632 42.69 40.3972 42.83 40.3972 43.006C40.3972 43.13 40.4292 43.234 40.4932 43.318C40.5612 43.398 40.6452 43.464 40.7452 43.516C40.8452 43.568 40.9472 43.616 41.0512 43.66L41.6092 43.9C41.7612 43.964 41.8972 44.042 42.0172 44.134C42.1412 44.222 42.2392 44.332 42.3112 44.464C42.3832 44.592 42.4192 44.754 42.4192 44.95C42.4192 45.158 42.3652 45.348 42.2572 45.52C42.1492 45.688 41.9952 45.822 41.7952 45.922C41.5952 46.022 41.3572 46.072 41.0812 46.072ZM43.1943 46V42.064H44.1783C44.7863 42.064 45.2483 42.234 45.5643 42.574C45.8803 42.91 46.0383 43.39 46.0383 44.014C46.0383 44.642 45.8803 45.13 45.5643 45.478C45.2523 45.826 44.7983 46 44.2023 46H43.1943ZM43.6923 45.592H44.1423C44.6023 45.592 44.9463 45.454 45.1743 45.178C45.4063 44.898 45.5223 44.51 45.5223 44.014C45.5223 43.518 45.4063 43.138 45.1743 42.874C44.9463 42.606 44.6023 42.472 44.1423 42.472H43.6923V45.592ZM47.5051 43.798L47.3191 44.398H48.5011L48.3151 43.798C48.2431 43.578 48.1751 43.36 48.1111 43.144C48.0471 42.924 47.9831 42.7 47.9191 42.472H47.8951C47.8351 42.7 47.7731 42.924 47.7091 43.144C47.6451 43.36 47.5771 43.578 47.5051 43.798ZM46.3051 46L47.6371 42.064H48.2011L49.5331 46H48.9991L48.6271 44.8H47.1931L46.8151 46H46.3051Z" fill="white"/>
<path d="M68.3597 46V45.592H69.2357V42.772H68.5397V42.454C68.7157 42.422 68.8677 42.384 68.9957 42.34C69.1277 42.292 69.2457 42.236 69.3497 42.172H69.7277V45.592H70.5197V46H68.3597ZM72.0862 43.798L71.9002 44.398H73.0822L72.8962 43.798C72.8242 43.578 72.7562 43.36 72.6922 43.144C72.6282 42.924 72.5642 42.7 72.5002 42.472H72.4762C72.4162 42.7 72.3542 42.924 72.2902 43.144C72.2262 43.36 72.1582 43.578 72.0862 43.798ZM70.8862 46L72.2182 42.064H72.7822L74.1142 46H73.5802L73.2082 44.8H71.7742L71.3962 46H70.8862ZM75.5358 46.072C75.2318 46.072 74.9798 46.018 74.7798 45.91C74.5798 45.802 74.4138 45.682 74.2818 45.55L74.5218 45.226C74.6378 45.338 74.7718 45.44 74.9238 45.532C75.0758 45.62 75.2638 45.664 75.4878 45.664C75.7238 45.664 75.9218 45.586 76.0818 45.43C76.2458 45.27 76.3278 45.056 76.3278 44.788C76.3278 44.524 76.2538 44.318 76.1058 44.17C75.9578 44.022 75.7598 43.948 75.5118 43.948C75.3798 43.948 75.2658 43.968 75.1698 44.008C75.0778 44.048 74.9738 44.106 74.8578 44.182L74.5938 44.014L74.7198 42.172H76.6338V42.598H75.1518L75.0498 43.732C75.1418 43.684 75.2338 43.646 75.3258 43.618C75.4178 43.59 75.5218 43.576 75.6378 43.576C75.8578 43.576 76.0558 43.62 76.2318 43.708C76.4118 43.792 76.5558 43.922 76.6638 44.098C76.7718 44.274 76.8258 44.5 76.8258 44.776C76.8258 45.052 76.7638 45.288 76.6398 45.484C76.5198 45.676 76.3618 45.822 76.1658 45.922C75.9698 46.022 75.7598 46.072 75.5358 46.072Z" fill="white"/>
<path d="M99.793 46.072C99.489 46.072 99.235 46.018 99.031 45.91C98.827 45.798 98.661 45.672 98.533 45.532L98.785 45.208C98.901 45.328 99.037 45.434 99.193 45.526C99.349 45.618 99.539 45.664 99.763 45.664C99.995 45.664 100.185 45.6 100.333 45.472C100.481 45.344 100.555 45.174 100.555 44.962C100.555 44.81 100.515 44.678 100.435 44.566C100.359 44.45 100.231 44.36 100.051 44.296C99.875 44.232 99.635 44.2 99.331 44.2V43.822C99.603 43.822 99.817 43.79 99.973 43.726C100.133 43.662 100.247 43.576 100.315 43.468C100.383 43.36 100.417 43.24 100.417 43.108C100.417 42.92 100.357 42.772 100.237 42.664C100.121 42.556 99.961 42.502 99.757 42.502C99.597 42.502 99.449 42.538 99.313 42.61C99.181 42.682 99.057 42.776 98.941 42.892L98.677 42.58C98.825 42.44 98.989 42.326 99.169 42.238C99.349 42.146 99.551 42.1 99.775 42.1C100.107 42.1 100.381 42.186 100.597 42.358C100.813 42.526 100.921 42.764 100.921 43.072C100.921 43.304 100.857 43.494 100.729 43.642C100.601 43.79 100.433 43.904 100.225 43.984V44.008C100.457 44.06 100.653 44.17 100.813 44.338C100.973 44.502 101.053 44.716 101.053 44.98C101.053 45.204 100.997 45.398 100.885 45.562C100.773 45.726 100.621 45.852 100.429 45.94C100.241 46.028 100.029 46.072 99.793 46.072ZM102.577 43.798L102.391 44.398H103.573L103.387 43.798C103.315 43.578 103.247 43.36 103.183 43.144C103.119 42.924 103.055 42.7 102.991 42.472H102.967C102.907 42.7 102.845 42.924 102.781 43.144C102.717 43.36 102.649 43.578 102.577 43.798ZM101.377 46L102.709 42.064H103.273L104.605 46H104.071L103.699 44.8H102.265L101.887 46H101.377Z" fill="white"/>
<path d="M14.1243 46L12.8643 42.064H13.3983L14.0283 44.188C14.1003 44.42 14.1623 44.638 14.2143 44.842C14.2703 45.042 14.3363 45.258 14.4123 45.49H14.4363C14.5083 45.258 14.5723 45.042 14.6283 44.842C14.6843 44.638 14.7463 44.42 14.8143 44.188L15.4443 42.064H15.9543L14.7063 46H14.1243ZM18.4493 45.376V44.206H17.3573V43.834H18.4493V42.664H18.8393V43.834H19.9313V44.206H18.8393V45.376H18.4493ZM11.7695 54V50.064H12.9395C13.2075 50.064 13.4415 50.096 13.6415 50.16C13.8455 50.224 14.0035 50.326 14.1155 50.466C14.2315 50.606 14.2895 50.792 14.2895 51.024C14.2895 51.22 14.2395 51.398 14.1395 51.558C14.0435 51.714 13.9015 51.822 13.7135 51.882V51.906C13.9495 51.95 14.1415 52.05 14.2895 52.206C14.4415 52.362 14.5175 52.576 14.5175 52.848C14.5175 53.104 14.4535 53.318 14.3255 53.49C14.2015 53.662 14.0275 53.79 13.8035 53.874C13.5795 53.958 13.3195 54 13.0235 54H11.7695ZM12.2675 51.738H12.8495C13.1855 51.738 13.4275 51.68 13.5755 51.564C13.7235 51.448 13.7975 51.29 13.7975 51.09C13.7975 50.862 13.7195 50.7 13.5635 50.604C13.4115 50.508 13.1815 50.46 12.8735 50.46H12.2675V51.738ZM12.2675 53.604H12.9515C13.2915 53.604 13.5555 53.542 13.7435 53.418C13.9315 53.29 14.0255 53.094 14.0255 52.83C14.0255 52.586 13.9315 52.408 13.7435 52.296C13.5595 52.18 13.2955 52.122 12.9515 52.122H12.2675V53.604ZM16.6948 54.072C16.4268 54.072 16.1848 54.018 15.9688 53.91C15.7568 53.802 15.5888 53.624 15.4648 53.376C15.3408 53.128 15.2788 52.794 15.2788 52.374V50.064H15.7768V52.386C15.7768 52.702 15.8168 52.952 15.8968 53.136C15.9808 53.316 16.0908 53.444 16.2268 53.52C16.3668 53.596 16.5228 53.634 16.6948 53.634C16.8708 53.634 17.0288 53.596 17.1688 53.52C17.3088 53.444 17.4188 53.316 17.4988 53.136C17.5828 52.952 17.6248 52.702 17.6248 52.386V50.064H18.1048V52.374C18.1048 52.794 18.0428 53.128 17.9188 53.376C17.7948 53.624 17.6268 53.802 17.4148 53.91C17.2028 54.018 16.9628 54.072 16.6948 54.072ZM20.1974 54.072C19.9214 54.072 19.6654 54.02 19.4294 53.916C19.1934 53.808 18.9894 53.666 18.8174 53.49L19.1174 53.142C19.2574 53.29 19.4214 53.41 19.6094 53.502C19.8014 53.59 19.9994 53.634 20.2034 53.634C20.4634 53.634 20.6654 53.576 20.8094 53.46C20.9534 53.34 21.0254 53.184 21.0254 52.992C21.0254 52.856 20.9954 52.748 20.9354 52.668C20.8794 52.588 20.8014 52.52 20.7014 52.464C20.6054 52.408 20.4954 52.352 20.3714 52.296L19.8074 52.05C19.6834 51.998 19.5594 51.93 19.4354 51.846C19.3154 51.762 19.2134 51.654 19.1294 51.522C19.0494 51.39 19.0094 51.228 19.0094 51.036C19.0094 50.836 19.0614 50.658 19.1654 50.502C19.2734 50.342 19.4214 50.218 19.6094 50.13C19.7974 50.038 20.0094 49.992 20.2454 49.992C20.4814 49.992 20.6994 50.038 20.8994 50.13C21.0994 50.218 21.2694 50.334 21.4094 50.478L21.1394 50.802C21.0194 50.686 20.8854 50.596 20.7374 50.532C20.5934 50.464 20.4294 50.43 20.2454 50.43C20.0254 50.43 19.8474 50.482 19.7114 50.586C19.5794 50.69 19.5134 50.83 19.5134 51.006C19.5134 51.13 19.5454 51.234 19.6094 51.318C19.6774 51.398 19.7614 51.464 19.8614 51.516C19.9614 51.568 20.0634 51.616 20.1674 51.66L20.7254 51.9C20.8774 51.964 21.0134 52.042 21.1334 52.134C21.2574 52.222 21.3554 52.332 21.4274 52.464C21.4994 52.592 21.5354 52.754 21.5354 52.95C21.5354 53.158 21.4814 53.348 21.3734 53.52C21.2654 53.688 21.1114 53.822 20.9114 53.922C20.7114 54.022 20.4734 54.072 20.1974 54.072Z" fill="white"/>
<path d="M12.4484 115.072C12.1044 115.072 11.7984 114.992 11.5304 114.832C11.2624 114.668 11.0524 114.434 10.9004 114.13C10.7484 113.826 10.6724 113.46 10.6724 113.032C10.6724 112.608 10.7504 112.244 10.9064 111.94C11.0624 111.636 11.2764 111.402 11.5484 111.238C11.8204 111.074 12.1304 110.992 12.4784 110.992C12.7504 110.992 12.9784 111.044 13.1624 111.148C13.3504 111.248 13.5004 111.358 13.6124 111.478L13.3364 111.802C13.2364 111.698 13.1204 111.61 12.9884 111.538C12.8564 111.466 12.6904 111.43 12.4904 111.43C12.2264 111.43 11.9964 111.496 11.8004 111.628C11.6044 111.756 11.4524 111.938 11.3444 112.174C11.2404 112.41 11.1884 112.692 11.1884 113.02C11.1884 113.516 11.3004 113.91 11.5244 114.202C11.7524 114.49 12.0764 114.634 12.4964 114.634C12.6364 114.634 12.7704 114.614 12.8984 114.574C13.0264 114.53 13.1284 114.472 13.2044 114.4V113.374H12.3704V112.96H13.6604V114.616C13.5364 114.748 13.3684 114.858 13.1564 114.946C12.9484 115.03 12.7124 115.072 12.4484 115.072ZM14.6035 115V111.064H15.1195L16.5415 113.536L16.9675 114.352H16.9915C16.9795 114.152 16.9655 113.946 16.9495 113.734C16.9375 113.518 16.9315 113.306 16.9315 113.098V111.064H17.4055V115H16.8895L15.4615 112.522L15.0355 111.712H15.0115C15.0275 111.908 15.0415 112.11 15.0535 112.318C15.0695 112.526 15.0775 112.734 15.0775 112.942V115H14.6035ZM18.4882 115V111.064H19.4722C20.0802 111.064 20.5422 111.234 20.8582 111.574C21.1742 111.91 21.3322 112.39 21.3322 113.014C21.3322 113.642 21.1742 114.13 20.8582 114.478C20.5462 114.826 20.0922 115 19.4962 115H18.4882ZM18.9862 114.592H19.4362C19.8962 114.592 20.2402 114.454 20.4682 114.178C20.7002 113.898 20.8162 113.51 20.8162 113.014C20.8162 112.518 20.7002 112.138 20.4682 111.874C20.2402 111.606 19.8962 111.472 19.4362 111.472H18.9862V114.592Z" fill="white"/>
<path d="M41.3566 115.072C41.0806 115.072 40.8246 115.02 40.5886 114.916C40.3526 114.808 40.1486 114.666 39.9766 114.49L40.2766 114.142C40.4166 114.29 40.5806 114.41 40.7686 114.502C40.9606 114.59 41.1586 114.634 41.3626 114.634C41.6226 114.634 41.8246 114.576 41.9686 114.46C42.1126 114.34 42.1846 114.184 42.1846 113.992C42.1846 113.856 42.1546 113.748 42.0946 113.668C42.0386 113.588 41.9606 113.52 41.8606 113.464C41.7646 113.408 41.6546 113.352 41.5306 113.296L40.9666 113.05C40.8426 112.998 40.7186 112.93 40.5946 112.846C40.4746 112.762 40.3726 112.654 40.2886 112.522C40.2086 112.39 40.1686 112.228 40.1686 112.036C40.1686 111.836 40.2206 111.658 40.3246 111.502C40.4326 111.342 40.5806 111.218 40.7686 111.13C40.9566 111.038 41.1686 110.992 41.4046 110.992C41.6406 110.992 41.8586 111.038 42.0586 111.13C42.2586 111.218 42.4286 111.334 42.5686 111.478L42.2986 111.802C42.1786 111.686 42.0446 111.596 41.8966 111.532C41.7526 111.464 41.5886 111.43 41.4046 111.43C41.1846 111.43 41.0066 111.482 40.8706 111.586C40.7386 111.69 40.6726 111.83 40.6726 112.006C40.6726 112.13 40.7046 112.234 40.7686 112.318C40.8366 112.398 40.9206 112.464 41.0206 112.516C41.1206 112.568 41.2226 112.616 41.3266 112.66L41.8846 112.9C42.0366 112.964 42.1726 113.042 42.2926 113.134C42.4166 113.222 42.5146 113.332 42.5866 113.464C42.6586 113.592 42.6946 113.754 42.6946 113.95C42.6946 114.158 42.6406 114.348 42.5326 114.52C42.4246 114.688 42.2706 114.822 42.0706 114.922C41.8706 115.022 41.6326 115.072 41.3566 115.072ZM44.9577 115.072C44.6297 115.072 44.3357 114.992 44.0757 114.832C43.8197 114.668 43.6157 114.434 43.4637 114.13C43.3157 113.826 43.2417 113.46 43.2417 113.032C43.2417 112.608 43.3177 112.244 43.4697 111.94C43.6217 111.636 43.8297 111.402 44.0937 111.238C44.3577 111.074 44.6557 110.992 44.9877 110.992C45.2277 110.992 45.4397 111.042 45.6237 111.142C45.8077 111.238 45.9557 111.35 46.0677 111.478L45.7977 111.802C45.6937 111.69 45.5757 111.6 45.4437 111.532C45.3117 111.464 45.1617 111.43 44.9937 111.43C44.7457 111.43 44.5277 111.496 44.3397 111.628C44.1557 111.756 44.0117 111.938 43.9077 112.174C43.8077 112.41 43.7577 112.692 43.7577 113.02C43.7577 113.348 43.8077 113.634 43.9077 113.878C44.0077 114.118 44.1477 114.304 44.3277 114.436C44.5117 114.568 44.7277 114.634 44.9757 114.634C45.1637 114.634 45.3317 114.594 45.4797 114.514C45.6277 114.434 45.7637 114.326 45.8877 114.19L46.1637 114.502C46.0077 114.682 45.8317 114.822 45.6357 114.922C45.4397 115.022 45.2137 115.072 44.9577 115.072ZM46.8974 115V111.064H47.3954V114.574H49.1174V115H46.8974Z" fill="white"/>
<path d="M98.4192 112.798L98.2332 113.398H99.4152L99.2292 112.798C99.1572 112.578 99.0892 112.36 99.0252 112.144C98.9612 111.924 98.8972 111.7 98.8332 111.472H98.8092C98.7492 111.7 98.6872 111.924 98.6232 112.144C98.5592 112.36 98.4912 112.578 98.4192 112.798ZM97.2192 115L98.5512 111.064H99.1152L100.447 115H99.9132L99.5412 113.8H98.1072L97.7292 115H97.2192ZM101.005 115V111.064H101.503V114.574H103.225V115H101.005ZM103.923 115V111.064H105.153C105.421 111.064 105.659 111.1 105.867 111.172C106.075 111.24 106.237 111.356 106.353 111.52C106.473 111.68 106.533 111.896 106.533 112.168C106.533 112.472 106.453 112.718 106.293 112.906C106.133 113.09 105.917 113.216 105.645 113.284L106.647 115H106.083L105.135 113.338H104.421V115H103.923ZM104.421 112.93H105.081C105.389 112.93 105.625 112.868 105.789 112.744C105.953 112.616 106.035 112.424 106.035 112.168C106.035 111.908 105.953 111.726 105.789 111.622C105.625 111.518 105.389 111.466 105.081 111.466H104.421V112.93Z" fill="white"/>
<path d="M69.0012 112.798L68.8152 113.398H69.9972L69.8112 112.798C69.7392 112.578 69.6712 112.36 69.6072 112.144C69.5432 111.924 69.4792 111.7 69.4152 111.472H69.3912C69.3312 111.7 69.2692 111.924 69.2052 112.144C69.1412 112.36 69.0732 112.578 69.0012 112.798ZM67.8012 115L69.1332 111.064H69.6972L71.0292 115H70.4952L70.1232 113.8H68.6892L68.3112 115H67.8012ZM72.0748 115V111.484H70.8868V111.064H73.7668V111.484H72.5788V115H72.0748ZM75.8171 115.072C75.4891 115.072 75.1951 114.992 74.9351 114.832C74.6791 114.668 74.4751 114.434 74.3231 114.13C74.1751 113.826 74.1011 113.46 74.1011 113.032C74.1011 112.608 74.1771 112.244 74.3291 111.94C74.4811 111.636 74.6891 111.402 74.9531 111.238C75.2171 111.074 75.5151 110.992 75.8471 110.992C76.0871 110.992 76.2991 111.042 76.4831 111.142C76.6671 111.238 76.8151 111.35 76.9271 111.478L76.6571 111.802C76.5531 111.69 76.4351 111.6 76.3031 111.532C76.1711 111.464 76.0211 111.43 75.8531 111.43C75.6051 111.43 75.3871 111.496 75.1991 111.628C75.0151 111.756 74.8711 111.938 74.7671 112.174C74.6671 112.41 74.6171 112.692 74.6171 113.02C74.6171 113.348 74.6671 113.634 74.7671 113.878C74.8671 114.118 75.0071 114.304 75.1871 114.436C75.3711 114.568 75.5871 114.634 75.8351 114.634C76.0231 114.634 76.1911 114.594 76.3391 114.514C76.4871 114.434 76.6231 114.326 76.7471 114.19L77.0231 114.502C76.8671 114.682 76.6911 114.822 76.4951 114.922C76.2991 115.022 76.0731 115.072 75.8171 115.072Z" fill="white"/>
</svg>
